<?xml version="1.0" encoding="UTF-8" standalone="no"?><svg xmlns="http://www.w3.org/2000/svg" xmlns:xlink="http://www.w3.org/1999/xlink" style="isolation:isolate" viewBox="103.667 109.172 292.666 240.938" width="100%" height="100%"><defs><clipPath id="_clipPath_6kOD5qCdoD5kHXFI4r8oQ85kQVLb2Yvx"><rect x="103.667" y="109.172" width="292.666" height="240.938"/></clipPath></defs><g clip-path="url(#_clipPath_6kOD5qCdoD5kHXFI4r8oQ85kQVLb2Yvx)"><path d=" M 360.885 109.172 L 140.145 109.172 C 138.175 109.172 136.565 110.782 136.565 112.751 L 136.565 134.675 L 364.465 134.675 L 364.465 112.751 C 364.465 110.782 362.854 109.172 360.885 109.172 Z " fill="rgb(152,0,0)"/><linearGradient id="_lgradient_0" x1="0" y1="0" x2="1" y2="0" gradientTransform="matrix(0,20.721,-20.721,0,250.515,212.233)" gradientUnits="userSpaceOnUse"><stop offset="0%" stop-opacity="1" style="stop-color:rgb(236,236,236)"/><stop offset="100%" stop-opacity="1" style="stop-color:rgb(189,219,239)"/></linearGradient><path d=" M 364.465 229.85 L 136.565 229.85 L 136.565 130.799 C 136.565 128.83 138.175 127.22 140.145 127.22 L 142.493 127.22 C 144.462 127.22 146.664 125.721 147.387 123.89 L 150.44 116.146 C 151.163 114.315 153.364 112.816 155.333 112.816 L 211.62 112.816 C 213.59 112.816 215.791 114.315 216.514 116.146 L 219.567 123.89 C 220.29 125.721 222.491 127.22 224.46 127.22 L 360.885 127.22 C 362.855 127.22 364.465 128.83 364.465 130.799 L 364.465 229.85 Z " fill="url(#_lgradient_0)"/><path d=" M 157.213 119.598 C 157.213 119.543 157.206 119.475 157.193 119.4 C 157.425 119.222 157.684 119.113 157.95 119.113 C 158.36 119.113 158.578 119.406 158.578 119.925 L 158.578 121.918 C 158.578 122.062 158.674 122.178 158.844 122.178 C 159.015 122.178 159.111 122.062 159.111 121.918 L 159.111 119.925 C 159.111 119.154 158.749 118.635 158.025 118.635 C 157.698 118.635 157.35 118.731 157.049 118.942 C 156.974 118.826 156.885 118.744 156.762 118.744 C 156.619 118.744 156.51 118.847 156.51 118.983 C 156.51 119.052 156.544 119.093 156.558 119.12 C 156.619 119.222 156.681 119.222 156.681 119.598 L 156.681 121.918 C 156.681 122.062 156.769 122.178 156.947 122.178 C 157.124 122.178 157.213 122.062 157.213 121.918 L 157.213 119.598 Z  M 161.213 122.185 C 162.046 122.185 162.49 121.652 162.49 120.97 L 162.49 119.83 C 162.49 119.147 162.046 118.615 161.213 118.615 C 160.38 118.615 159.937 119.147 159.937 119.83 L 159.937 120.97 C 159.937 121.652 160.38 122.185 161.213 122.185 Z  M 161.213 121.693 C 160.722 121.693 160.469 121.42 160.469 120.97 L 160.469 119.823 C 160.469 119.379 160.722 119.106 161.213 119.106 C 161.705 119.106 161.957 119.379 161.957 119.823 L 161.957 120.97 C 161.957 121.42 161.705 121.693 161.213 121.693 Z  M 163.302 120.744 C 163.302 121.686 163.534 122.157 164.489 122.157 C 164.681 122.157 164.878 122.13 164.878 121.898 C 164.878 121.679 164.681 121.652 164.524 121.652 C 164.483 121.652 164.435 121.659 164.394 121.659 C 163.902 121.659 163.834 121.4 163.834 120.697 L 163.834 119.338 L 164.544 119.338 C 164.681 119.338 164.79 119.229 164.79 119.086 C 164.79 118.942 164.681 118.833 164.544 118.833 L 163.834 118.833 L 163.834 117.891 C 163.834 117.748 163.739 117.632 163.568 117.632 C 163.397 117.632 163.302 117.748 163.302 117.891 L 163.302 120.744 Z  M 167.54 121.905 C 167.54 122.048 167.636 122.164 167.806 122.164 C 167.977 122.164 168.072 122.048 168.072 121.905 L 168.072 119.338 L 168.782 119.338 C 168.919 119.338 169.028 119.229 169.028 119.086 C 169.028 118.942 168.919 118.833 168.782 118.833 L 168.072 118.833 L 168.072 118.41 C 168.072 118.021 168.277 117.693 168.68 117.693 C 168.871 117.693 168.98 117.741 169.096 117.741 C 169.233 117.741 169.356 117.645 169.356 117.488 C 169.356 117.174 168.844 117.174 168.735 117.181 C 168.052 117.209 167.54 117.598 167.54 118.465 L 167.54 121.905 Z  M 170.83 122.185 C 171.663 122.185 172.107 121.652 172.107 120.97 L 172.107 119.83 C 172.107 119.147 171.663 118.615 170.83 118.615 C 169.998 118.615 169.554 119.147 169.554 119.83 L 169.554 120.97 C 169.554 121.652 169.998 122.185 170.83 122.185 Z  M 170.83 121.693 C 170.339 121.693 170.086 121.42 170.086 120.97 L 170.086 119.823 C 170.086 119.379 170.339 119.106 170.83 119.106 C 171.322 119.106 171.574 119.379 171.574 119.823 L 171.574 120.97 C 171.574 121.42 171.322 121.693 170.83 121.693 Z  M 174.816 121.29 C 174.816 121.345 174.823 121.413 174.83 121.482 C 174.605 121.625 174.345 121.707 174.079 121.707 C 173.67 121.707 173.451 121.413 173.451 120.895 L 173.451 118.901 C 173.451 118.758 173.356 118.642 173.185 118.642 C 173.014 118.642 172.919 118.758 172.919 118.901 L 172.919 120.895 C 172.919 121.666 173.281 122.185 174.004 122.185 C 174.325 122.185 174.673 122.11 174.973 121.939 C 175.049 122.062 175.137 122.144 175.267 122.144 C 175.41 122.144 175.52 122.034 175.52 121.905 C 175.52 121.843 175.485 121.796 175.472 121.768 C 175.417 121.666 175.349 121.666 175.349 121.29 L 175.349 118.901 C 175.349 118.758 175.26 118.642 175.083 118.642 C 174.905 118.642 174.816 118.758 174.816 118.901 L 174.816 121.29 Z  M 176.946 119.598 C 176.946 119.543 176.94 119.475 176.926 119.4 C 177.158 119.222 177.417 119.113 177.684 119.113 C 178.093 119.113 178.312 119.406 178.312 119.925 L 178.312 121.918 C 178.312 122.062 178.407 122.178 178.578 122.178 C 178.748 122.178 178.844 122.062 178.844 121.918 L 178.844 119.925 C 178.844 119.154 178.482 118.635 177.759 118.635 C 177.431 118.635 177.083 118.731 176.783 118.942 C 176.707 118.826 176.619 118.744 176.496 118.744 C 176.353 118.744 176.243 118.847 176.243 118.983 C 176.243 119.052 176.277 119.093 176.291 119.12 C 176.353 119.222 176.414 119.222 176.414 119.598 L 176.414 121.918 C 176.414 122.062 176.503 122.178 176.68 122.178 C 176.858 122.178 176.946 122.062 176.946 121.918 L 176.946 119.598 Z  M 180.809 118.649 C 179.942 118.649 179.669 119.215 179.669 120.028 L 179.669 120.895 C 179.669 121.659 180.038 122.185 180.754 122.185 C 181.096 122.185 181.423 122.069 181.724 121.918 C 181.806 122.048 181.929 122.137 182.086 122.137 C 182.202 122.137 182.324 122.041 182.324 121.898 C 182.324 121.836 182.304 121.802 182.277 121.761 C 182.14 121.659 182.099 121.543 182.099 121.352 L 182.099 117.441 C 182.099 117.297 182.004 117.181 181.833 117.181 C 181.662 117.181 181.567 117.297 181.567 117.441 L 181.567 118.779 C 181.321 118.697 181.034 118.649 180.809 118.649 Z  M 181.567 121.352 C 181.567 121.4 181.567 121.454 181.58 121.509 C 181.348 121.632 181.082 121.707 180.864 121.707 C 180.413 121.707 180.202 121.427 180.202 120.895 L 180.202 120.028 C 180.202 119.393 180.379 119.113 180.877 119.113 C 181.041 119.113 181.342 119.161 181.567 119.256 L 181.567 121.352 Z " fill="rgb(101,102,102)"/><path d=" M 208.924 121.885 C 208.72 122.089 208.391 122.089 208.187 121.885 C 207.982 121.681 207.982 121.351 208.187 121.146 L 212.405 116.928 C 212.609 116.724 212.938 116.724 213.144 116.928 C 213.347 117.132 213.347 117.462 213.144 117.665 L 208.924 121.885 Z " fill="rgb(101,102,102)"/><path d=" M 208.187 117.665 C 207.982 117.461 207.982 117.133 208.187 116.928 C 208.391 116.725 208.72 116.724 208.924 116.927 L 213.144 121.146 C 213.348 121.351 213.346 121.681 213.143 121.885 C 212.938 122.089 212.61 122.089 212.405 121.885 L 208.187 117.665 Z " fill="rgb(101,102,102)"/><path d=" M 353.548 121.885 C 353.344 122.089 353.015 122.089 352.81 121.885 C 352.606 121.681 352.606 121.351 352.81 121.146 L 357.029 116.928 C 357.233 116.724 357.563 116.724 357.767 116.928 C 357.971 117.132 357.971 117.462 357.767 117.665 L 353.548 121.885 Z " fill="rgb(236,236,236)"/><path d=" M 352.81 117.665 C 352.606 117.461 352.606 117.133 352.81 116.928 C 353.015 116.725 353.344 116.724 353.548 116.927 L 357.767 121.146 C 357.972 121.351 357.97 121.681 357.767 121.885 C 357.563 122.089 357.233 122.089 357.029 121.885 L 352.81 117.665 Z " fill="rgb(236,236,236)"/><path d=" M 343.617 149.562 C 343.617 150.235 343.07 150.782 342.396 150.782 L 158.633 150.782 C 157.958 150.782 157.412 150.235 157.412 149.562 L 157.412 137.388 C 157.412 136.713 157.958 136.166 158.633 136.166 L 342.396 136.166 C 343.07 136.166 343.617 136.713 343.617 137.388 L 343.617 149.562 Z " fill="rgb(152,0,0)" fill-opacity="0.49"/><path d=" M 348.441 121.603 L 348.441 121.103 L 344.548 121.103 L 344.548 117.709 L 347.941 117.709 L 347.941 121.603 L 348.441 121.603 L 348.441 121.103 L 348.441 121.603 L 348.941 121.603 L 348.941 117.209 C 348.941 117.077 348.888 116.949 348.795 116.855 C 348.702 116.762 348.573 116.709 348.441 116.709 L 344.048 116.709 C 343.916 116.709 343.787 116.762 343.694 116.855 C 343.601 116.949 343.548 117.077 343.548 117.209 L 343.548 121.603 C 343.548 121.734 343.601 121.863 343.694 121.956 C 343.787 122.049 343.916 122.103 344.048 122.103 L 348.441 122.103 C 348.573 122.103 348.702 122.049 348.795 121.956 C 348.888 121.863 348.941 121.734 348.941 121.603 L 348.441 121.603 Z " fill="rgb(236,236,236)"/><path d=" M 339.397 121.103 L 335.004 121.103 C 334.728 121.103 334.504 121.326 334.504 121.603 C 334.504 121.879 334.728 122.103 335.004 122.103 L 339.397 122.103 C 339.674 122.103 339.897 121.879 339.897 121.603 C 339.897 121.326 339.674 121.103 339.397 121.103 Z " fill="rgb(236,236,236)"/><path d=" M 210.259 169.905 C 209.209 168.852 209.209 167.156 210.259 166.101 C 211.313 165.051 213.012 165.047 214.063 166.096 L 228.428 180.46 C 229.481 181.51 229.474 183.214 228.423 184.27 C 227.372 185.318 225.677 185.318 224.623 184.27 L 210.259 169.905 Z " fill="rgb(101,102,102)"/><path d=" M 228.427 169.905 C 229.477 168.852 229.477 167.156 228.427 166.101 C 227.37 165.051 225.672 165.047 224.621 166.096 L 210.257 180.46 C 209.202 181.51 209.212 183.214 210.261 184.27 C 211.312 185.318 213.007 185.318 214.061 184.27 L 228.427 169.905 Z " fill="rgb(101,102,102)"/><path d=" M 272.603 169.905 C 271.553 168.852 271.553 167.156 272.603 166.101 C 273.659 165.051 275.357 165.047 276.408 166.096 L 290.772 180.46 C 291.827 181.51 291.817 183.214 290.769 184.27 C 289.718 185.318 288.022 185.318 286.969 184.27 L 272.603 169.905 Z " fill="rgb(101,102,102)"/><path d=" M 290.771 169.905 C 291.821 168.852 291.821 167.156 290.771 166.101 C 289.716 165.051 288.018 165.047 286.967 166.096 L 272.602 180.46 C 271.548 181.51 271.556 183.214 272.606 184.27 C 273.657 185.318 275.353 185.318 276.406 184.27 L 290.771 169.905 Z " fill="rgb(101,102,102)"/><path d=" M 260.67 198.346 C 262.159 198.342 263.356 197.144 263.359 195.655 C 263.358 194.166 262.159 192.963 260.675 192.962 L 240.36 192.961 C 238.872 192.958 237.673 194.17 237.67 195.659 C 237.671 197.143 238.869 198.342 240.356 198.346 L 260.67 198.346 Z " fill="rgb(101,102,102)"/><path d=" M 358.584 139.595 C 358.584 140.008 358.25 140.341 357.839 140.341 L 349.262 140.341 C 348.851 140.341 348.517 140.008 348.517 139.595 C 348.517 139.185 348.851 138.851 349.262 138.851 L 357.839 138.851 C 358.25 138.851 358.584 139.185 358.584 139.595 Z " fill="rgb(147,147,146)"/><path d=" M 358.584 143.474 C 358.584 143.886 358.25 144.22 357.839 144.22 L 349.262 144.22 C 348.851 144.22 348.517 143.886 348.517 143.474 C 348.517 143.063 348.851 142.729 349.262 142.729 L 357.839 142.729 C 358.25 142.729 358.584 143.063 358.584 143.474 Z " fill="rgb(147,147,146)"/><path d=" M 358.584 147.352 C 358.584 147.765 358.25 148.099 357.839 148.099 L 349.262 148.099 C 348.851 148.099 348.517 147.765 348.517 147.352 C 348.517 146.941 348.851 146.607 349.262 146.607 L 357.839 146.607 C 358.25 146.607 358.584 146.941 358.584 147.352 Z " fill="rgb(147,147,146)"/><path d=" M 154.657 142.017 C 154.421 141.802 154.052 141.819 153.835 142.055 L 153.279 142.666 C 153.058 140.081 150.886 138.045 148.245 138.045 C 145.457 138.045 143.188 140.313 143.188 143.101 C 143.188 145.889 145.457 148.157 148.245 148.157 C 148.566 148.157 148.827 147.897 148.827 147.575 C 148.827 147.254 148.566 146.993 148.245 146.993 C 146.099 146.993 144.353 145.247 144.353 143.101 C 144.353 140.955 146.099 139.209 148.245 139.209 C 150.26 139.209 151.902 140.754 152.098 142.718 L 151.491 142.164 C 151.255 141.948 150.886 141.966 150.67 142.203 C 150.453 142.439 150.471 142.808 150.708 143.024 L 152.364 144.533 C 152.472 144.632 152.61 144.686 152.756 144.686 L 152.783 144.685 C 152.937 144.678 153.082 144.609 153.187 144.495 L 154.695 142.838 C 154.912 142.601 154.895 142.232 154.657 142.017 Z " fill="rgb(147,147,146)"/><path d=" M 359.548 342.905 L 139.423 342.905 C 138.169 342.905 136.975 341.887 136.756 340.626 L 118.133 233.01 L 121.466 252.27 L 136.795 252.27 C 136.224 259.469 135.117 266.929 133.102 273.363 L 148.474 278.177 C 151.007 270.085 152.32 260.893 152.948 252.27 L 153.998 252.27 C 153.848 277.248 153.56 288.123 151.803 303.491 L 167.806 305.321 C 169.657 289.133 169.953 277.962 170.107 252.27 L 171.03 252.27 C 170.893 274.981 171.372 304.101 174.298 317.931 L 190.056 314.597 C 187.416 302.118 187.003 274.24 187.145 252.27 L 189.748 252.27 C 189.967 268.185 189.956 286.44 189.069 296.782 L 205.118 298.159 C 206.06 287.188 206.085 268.493 205.865 252.27 L 206.333 252.27 C 206.586 274.281 207.72 302.358 211.559 316.771 L 227.125 312.625 C 226.581 310.582 226.097 308.191 225.668 305.533 L 239.365 303.596 C 238.903 307.16 238.358 310.221 237.716 312.599 L 253.266 316.797 C 256.88 303.411 257.756 274.748 257.831 252.27 L 258.12 252.27 C 257.953 271.414 258.271 294.683 260.357 307.695 L 276.263 305.144 C 274.346 293.195 274.069 270.828 274.238 252.27 L 276.249 252.27 L 276.249 290.237 L 292.357 290.237 L 292.357 252.27 L 294.413 252.27 C 294.533 270.961 294.029 293.39 291.353 304.54 L 307.017 308.3 C 310.04 295.699 310.633 271.854 310.525 252.27 L 310.913 252.27 C 311.314 275.892 313.223 306.277 319.932 319.835 L 334.368 312.692 C 329.236 302.319 327.472 275.328 327.056 252.27 L 329.082 252.27 C 329.646 270.807 330.835 293.201 333.342 305.959 L 349.147 302.854 C 346.869 291.262 345.754 270.106 345.207 252.27 L 347.173 252.27 C 347.946 262.795 349.236 273.835 351.387 281.52 L 366.898 277.179 C 365.132 270.866 364.019 261.515 363.318 252.27 L 377.505 252.27 L 362.214 340.626 C 361.994 341.887 360.802 342.905 359.548 342.905 Z  M 225.6 305.108 C 223.388 291.079 222.645 269.819 222.45 252.27 L 223.571 252.27 C 223.56 270.781 223.947 292.967 225.6 305.108 Z  M 240.529 291.355 C 239.858 279.942 239.677 265.23 239.687 252.27 L 241.717 252.27 C 241.666 265.218 241.355 279.45 240.529 291.355 Z " fill-rule="evenodd" fill="rgb(0,0,0)"/><clipPath id="_clipPath_IDSL4S3mePXhA5JvcLVc8WnQmfRijwdd"><path d=" M 359.548 342.905 L 139.423 342.905 C 138.169 342.905 136.975 341.887 136.756 340.626 L 118.133 233.01 L 121.466 252.27 L 136.795 252.27 C 136.224 259.469 135.117 266.929 133.102 273.363 L 148.474 278.177 C 151.007 270.085 152.32 260.893 152.948 252.27 L 153.998 252.27 C 153.848 277.248 153.56 288.123 151.803 303.491 L 167.806 305.321 C 169.657 289.133 169.953 277.962 170.107 252.27 L 171.03 252.27 C 170.893 274.981 171.372 304.101 174.298 317.931 L 190.056 314.597 C 187.416 302.118 187.003 274.24 187.145 252.27 L 189.748 252.27 C 189.967 268.185 189.956 286.44 189.069 296.782 L 205.118 298.159 C 206.06 287.188 206.085 268.493 205.865 252.27 L 206.333 252.27 C 206.586 274.281 207.72 302.358 211.559 316.771 L 227.125 312.625 C 226.581 310.582 226.097 308.191 225.668 305.533 L 239.365 303.596 C 238.903 307.16 238.358 310.221 237.716 312.599 L 253.266 316.797 C 256.88 303.411 257.756 274.748 257.831 252.27 L 258.12 252.27 C 257.953 271.414 258.271 294.683 260.357 307.695 L 276.263 305.144 C 274.346 293.195 274.069 270.828 274.238 252.27 L 276.249 252.27 L 276.249 290.237 L 292.357 290.237 L 292.357 252.27 L 294.413 252.27 C 294.533 270.961 294.029 293.39 291.353 304.54 L 307.017 308.3 C 310.04 295.699 310.633 271.854 310.525 252.27 L 310.913 252.27 C 311.314 275.892 313.223 306.277 319.932 319.835 L 334.368 312.692 C 329.236 302.319 327.472 275.328 327.056 252.27 L 329.082 252.27 C 329.646 270.807 330.835 293.201 333.342 305.959 L 349.147 302.854 C 346.869 291.262 345.754 270.106 345.207 252.27 L 347.173 252.27 C 347.946 262.795 349.236 273.835 351.387 281.52 L 366.898 277.179 C 365.132 270.866 364.019 261.515 363.318 252.27 L 377.505 252.27 L 362.214 340.626 C 361.994 341.887 360.802 342.905 359.548 342.905 Z  M 225.6 305.108 C 223.388 291.079 222.645 269.819 222.45 252.27 L 223.571 252.27 C 223.56 270.781 223.947 292.967 225.6 305.108 Z  M 240.529 291.355 C 239.858 279.942 239.677 265.23 239.687 252.27 L 241.717 252.27 C 241.666 265.218 241.355 279.45 240.529 291.355 Z " fill-rule="evenodd" fill="rgb(0,0,0)"/></clipPath><g clip-path="url(#_clipPath_IDSL4S3mePXhA5JvcLVc8WnQmfRijwdd)"><path d=" M 118.133 233.01 L 377.505 233.01 L 377.505 342.905 L 118.133 342.905 L 118.133 233.01 Z " fill="rgb(191,168,168)"/></g><linearGradient id="_lgradient_1" x1="0" y1="0" x2="1" y2="0" gradientTransform="matrix(0,-74.745,74.745,0,143.278,316.936)" gradientUnits="userSpaceOnUse"><stop offset="0%" stop-opacity="1" style="stop-color:rgb(254,254,254)"/><stop offset="100%" stop-opacity="1" style="stop-color:rgb(221,236,247)"/></linearGradient><path d=" M 148.474 278.177 L 133.102 273.363 C 135.117 266.929 136.224 259.469 136.795 252.27 L 152.948 252.27 C 152.32 260.893 151.007 270.085 148.474 278.177 Z " fill="url(#_lgradient_1)"/><linearGradient id="_lgradient_2" x1="0" y1="0" x2="1" y2="0" gradientTransform="matrix(0,-74.745,74.745,0,161.033,316.935)" gradientUnits="userSpaceOnUse"><stop offset="0%" stop-opacity="1" style="stop-color:rgb(254,254,254)"/><stop offset="100%" stop-opacity="1" style="stop-color:rgb(221,236,247)"/></linearGradient><path d=" M 167.806 305.321 L 151.803 303.491 C 153.56 288.123 153.848 277.248 153.998 252.27 L 170.107 252.27 C 169.953 277.962 169.657 289.133 167.806 305.321 Z " fill="url(#_lgradient_2)"/><linearGradient id="_lgradient_3" x1="0" y1="0" x2="1" y2="0" gradientTransform="matrix(0,-74.745,74.745,0,180.532,316.936)" gradientUnits="userSpaceOnUse"><stop offset="0%" stop-opacity="1" style="stop-color:rgb(254,254,254)"/><stop offset="100%" stop-opacity="1" style="stop-color:rgb(221,236,247)"/></linearGradient><path d=" M 174.298 317.931 C 171.372 304.101 170.893 274.981 171.03 252.27 L 187.145 252.27 C 187.003 274.24 187.416 302.118 190.056 314.597 L 174.298 317.931 Z " fill="url(#_lgradient_3)"/><linearGradient id="_lgradient_4" x1="0" y1="0" x2="1" y2="0" gradientTransform="matrix(0,-74.744,74.744,0,197.511,316.935)" gradientUnits="userSpaceOnUse"><stop offset="0%" stop-opacity="1" style="stop-color:rgb(254,254,254)"/><stop offset="100%" stop-opacity="1" style="stop-color:rgb(221,236,247)"/></linearGradient><path d=" M 205.118 298.159 L 189.069 296.782 C 189.956 286.44 189.967 268.185 189.748 252.27 L 205.865 252.27 C 206.085 268.493 206.06 287.188 205.118 298.159 Z " fill="url(#_lgradient_4)"/><linearGradient id="_lgradient_5" x1="0" y1="0" x2="1" y2="0" gradientTransform="matrix(0,-74.745,74.745,0,216.698,316.935)" gradientUnits="userSpaceOnUse"><stop offset="0%" stop-opacity="1" style="stop-color:rgb(254,254,254)"/><stop offset="100%" stop-opacity="1" style="stop-color:rgb(221,236,247)"/></linearGradient><path d=" M 211.559 316.771 C 207.72 302.358 206.586 274.281 206.333 252.27 L 222.45 252.27 C 222.645 269.819 223.388 291.079 225.6 305.108 C 225.62 305.251 225.639 305.394 225.659 305.534 L 225.668 305.533 C 226.097 308.191 226.581 310.582 227.125 312.625 L 211.559 316.771 Z " fill="url(#_lgradient_5)"/><linearGradient id="_lgradient_6" x1="0" y1="0" x2="1" y2="0" gradientTransform="matrix(0,-74.745,74.745,0,232.589,316.936)" gradientUnits="userSpaceOnUse"><stop offset="0%" stop-opacity="1" style="stop-color:rgb(254,254,254)"/><stop offset="100%" stop-opacity="1" style="stop-color:rgb(221,236,247)"/></linearGradient><path d=" M 225.659 305.534 C 225.639 305.394 225.62 305.251 225.6 305.108 C 223.947 292.967 223.56 270.781 223.571 252.27 L 239.687 252.27 C 239.677 265.23 239.858 279.942 240.529 291.355 C 240.218 295.829 239.835 299.971 239.365 303.596 L 225.668 305.533 L 225.659 305.534 Z " fill="url(#_lgradient_6)"/><linearGradient id="_lgradient_7" x1="0" y1="0" x2="1" y2="0" gradientTransform="matrix(0,-74.745,74.745,0,247.776,316.935)" gradientUnits="userSpaceOnUse"><stop offset="0%" stop-opacity="1" style="stop-color:rgb(254,254,254)"/><stop offset="100%" stop-opacity="1" style="stop-color:rgb(221,236,247)"/></linearGradient><path d=" M 253.266 316.797 L 237.716 312.599 C 238.358 310.221 238.903 307.16 239.365 303.596 C 239.835 299.971 240.218 295.829 240.529 291.355 C 241.355 279.45 241.666 265.218 241.717 252.27 L 257.831 252.27 C 257.756 274.748 256.88 303.411 253.266 316.797 Z " fill="url(#_lgradient_7)"/><linearGradient id="_lgradient_8" x1="0" y1="0" x2="1" y2="0" gradientTransform="matrix(0,-74.745,74.745,0,267.172,316.936)" gradientUnits="userSpaceOnUse"><stop offset="0%" stop-opacity="1" style="stop-color:rgb(254,254,254)"/><stop offset="100%" stop-opacity="1" style="stop-color:rgb(221,236,247)"/></linearGradient><path d=" M 260.357 307.695 C 258.271 294.683 257.953 271.414 258.12 252.27 L 274.238 252.27 C 274.069 270.828 274.346 293.195 276.263 305.144 L 260.357 307.695 Z " fill="url(#_lgradient_8)"/><linearGradient id="_lgradient_9" x1="0" y1="0" x2="1" y2="0" gradientTransform="matrix(0,-74.745,74.745,0,284.303,316.935)" gradientUnits="userSpaceOnUse"><stop offset="0%" stop-opacity="1" style="stop-color:rgb(254,254,254)"/><stop offset="100%" stop-opacity="1" style="stop-color:rgb(221,236,247)"/></linearGradient><path d=" M 292.357 290.237 L 276.249 290.237 L 276.249 252.27 L 292.357 252.27 L 292.357 290.237 Z " fill="url(#_lgradient_9)"/><linearGradient id="_lgradient_10" x1="0" y1="0" x2="1" y2="0" gradientTransform="matrix(0,-74.745,74.745,0,300.945,316.935)" gradientUnits="userSpaceOnUse"><stop offset="0%" stop-opacity="1" style="stop-color:rgb(254,254,254)"/><stop offset="100%" stop-opacity="1" style="stop-color:rgb(221,236,247)"/></linearGradient><path d=" M 307.017 308.3 L 291.353 304.54 C 294.029 293.39 294.533 270.961 294.413 252.27 L 310.525 252.27 C 310.633 271.854 310.04 295.699 307.017 308.3 Z " fill="url(#_lgradient_10)"/><linearGradient id="_lgradient_11" x1="0" y1="0" x2="1" y2="0" gradientTransform="matrix(0,-74.745,74.745,0,322.596,316.935)" gradientUnits="userSpaceOnUse"><stop offset="0%" stop-opacity="1" style="stop-color:rgb(254,254,254)"/><stop offset="100%" stop-opacity="1" style="stop-color:rgb(221,236,247)"/></linearGradient><path d=" M 319.932 319.835 C 313.223 306.277 311.314 275.892 310.913 252.27 L 327.056 252.27 C 327.472 275.328 329.236 302.319 334.368 312.692 L 319.932 319.835 Z " fill="url(#_lgradient_11)"/><linearGradient id="_lgradient_12" x1="0" y1="0" x2="1" y2="0" gradientTransform="matrix(0,-74.745,74.745,0,338.861,316.935)" gradientUnits="userSpaceOnUse"><stop offset="0%" stop-opacity="1" style="stop-color:rgb(254,254,254)"/><stop offset="100%" stop-opacity="1" style="stop-color:rgb(221,236,247)"/></linearGradient><path d=" M 333.342 305.959 C 330.835 293.201 329.646 270.807 329.082 252.27 L 345.207 252.27 C 345.754 270.106 346.869 291.262 349.147 302.854 L 333.342 305.959 Z " fill="url(#_lgradient_12)"/><linearGradient id="_lgradient_13" x1="0" y1="0" x2="1" y2="0" gradientTransform="matrix(0,-74.746,74.746,0,356.457,316.936)" gradientUnits="userSpaceOnUse"><stop offset="0%" stop-opacity="1" style="stop-color:rgb(254,254,254)"/><stop offset="100%" stop-opacity="1" style="stop-color:rgb(221,236,247)"/></linearGradient><path d=" M 351.387 281.52 C 349.236 273.835 347.946 262.795 347.173 252.27 L 363.318 252.27 C 364.019 261.515 365.132 270.866 366.898 277.179 L 351.387 281.52 Z " fill="url(#_lgradient_13)"/><path d=" M 377.505 252.27 L 363.318 252.27 C 362.851 246.113 362.567 240.003 362.394 234.869 C 363.615 234.296 364.465 233.055 364.465 231.624 L 364.465 229.85 L 378.7 229.85 C 379.997 229.85 380.892 230.934 380.893 232.373 C 380.894 232.578 380.876 232.791 380.838 233.009 L 377.505 252.27 Z  M 347.173 252.27 L 345.207 252.27 C 345.014 245.98 344.892 240.103 344.815 235.204 L 346.281 235.204 C 346.449 240.214 346.724 246.154 347.173 252.27 Z  M 329.082 252.27 L 327.056 252.27 C 326.946 246.179 326.93 240.368 326.971 235.204 L 328.696 235.204 C 328.771 240.09 328.89 245.956 329.082 252.27 Z  M 310.913 252.27 L 310.525 252.27 C 310.49 245.968 310.382 240.107 310.259 235.204 L 310.851 235.204 C 310.806 240.105 310.805 245.947 310.913 252.27 Z  M 294.413 252.27 L 292.357 252.27 L 292.357 235.204 L 294.137 235.204 C 294.261 240.082 294.372 245.964 294.413 252.27 Z  M 276.249 252.27 L 274.238 252.27 C 274.295 245.954 274.404 240.077 274.518 235.204 L 276.249 235.204 L 276.249 252.27 Z  M 258.12 252.27 L 257.831 252.27 C 257.852 245.927 257.81 240.08 257.747 235.204 L 258.397 235.204 C 258.283 240.102 258.175 245.961 258.12 252.27 Z  M 241.717 252.27 L 239.687 252.27 C 239.691 245.975 239.741 240.096 239.801 235.204 L 241.642 235.204 C 241.707 240.357 241.741 246.171 241.717 252.27 Z  M 223.571 252.27 L 222.45 252.27 C 222.379 245.923 222.38 240.061 222.409 235.204 L 223.685 235.204 C 223.624 240.108 223.574 245.976 223.571 252.27 Z  M 206.333 252.27 L 205.865 252.27 C 205.78 246.02 205.659 240.138 205.541 235.204 L 206.29 235.204 C 206.26 240.072 206.26 245.917 206.333 252.27 Z  M 189.748 252.27 L 187.145 252.27 C 187.186 245.913 187.274 240.056 187.368 235.204 L 189.422 235.204 C 189.54 240.114 189.661 246.012 189.748 252.27 Z  M 171.03 252.27 L 170.107 252.27 C 170.131 248.192 170.152 243.749 170.175 238.862 C 170.18 237.67 170.186 236.451 170.192 235.204 L 171.249 235.204 C 171.154 240.075 171.068 245.925 171.03 252.27 Z  M 153.998 252.27 L 152.948 252.27 C 153.399 246.082 153.497 240.189 153.44 235.204 L 154.085 235.204 C 154.079 236.425 154.073 237.619 154.067 238.787 C 154.044 243.714 154.023 248.18 153.998 252.27 Z  M 136.795 252.27 L 121.466 252.27 L 118.133 233.01 C 118.095 232.792 118.077 232.579 118.077 232.373 C 118.079 230.934 118.973 229.85 120.271 229.85 L 136.565 229.85 L 136.565 231.624 C 136.565 232.434 136.838 233.183 137.295 233.785 C 137.395 239.014 137.329 245.529 136.795 252.27 Z " fill="rgb(164,126,126)"/><linearGradient id="_lgradient_14" x1="0" y1="0" x2="1" y2="0" gradientTransform="matrix(0,-74.745,74.745,0,143.278,316.936)" gradientUnits="userSpaceOnUse"><stop offset="0%" stop-opacity="1" style="stop-color:rgb(217,217,216)"/><stop offset="100%" stop-opacity="1" style="stop-color:rgb(189,202,211)"/></linearGradient><path d=" M 152.948 252.27 L 136.795 252.27 C 137.329 245.529 137.395 239.014 137.295 233.785 C 137.95 234.646 138.985 235.204 140.145 235.204 L 153.44 235.204 C 153.497 240.189 153.399 246.082 152.948 252.27 Z " fill="url(#_lgradient_14)"/><linearGradient id="_lgradient_15" x1="0" y1="0" x2="1" y2="0" gradientTransform="matrix(0,-74.745,74.745,0,161.033,316.935)" gradientUnits="userSpaceOnUse"><stop offset="0%" stop-opacity="1" style="stop-color:rgb(217,217,216)"/><stop offset="100%" stop-opacity="1" style="stop-color:rgb(189,202,211)"/></linearGradient><path d=" M 170.107 252.27 L 153.998 252.27 C 154.023 248.18 154.044 243.714 154.067 238.787 C 154.073 237.619 154.079 236.425 154.085 235.204 L 170.192 235.204 C 170.186 236.451 170.18 237.67 170.175 238.862 C 170.152 243.749 170.131 248.192 170.107 252.27 Z " fill="url(#_lgradient_15)"/><linearGradient id="_lgradient_16" x1="0" y1="0" x2="1" y2="0" gradientTransform="matrix(0,-74.745,74.745,0,180.532,316.936)" gradientUnits="userSpaceOnUse"><stop offset="0%" stop-opacity="1" style="stop-color:rgb(217,217,216)"/><stop offset="100%" stop-opacity="1" style="stop-color:rgb(189,202,211)"/></linearGradient><path d=" M 187.145 252.27 L 171.03 252.27 C 171.068 245.925 171.154 240.075 171.249 235.204 L 187.368 235.204 C 187.274 240.056 187.186 245.913 187.145 252.27 Z " fill="url(#_lgradient_16)"/><linearGradient id="_lgradient_17" x1="0" y1="0" x2="1" y2="0" gradientTransform="matrix(0,-74.744,74.744,0,197.511,316.935)" gradientUnits="userSpaceOnUse"><stop offset="0%" stop-opacity="1" style="stop-color:rgb(217,217,216)"/><stop offset="100%" stop-opacity="1" style="stop-color:rgb(189,202,211)"/></linearGradient><path d=" M 205.865 252.27 L 189.748 252.27 C 189.661 246.012 189.54 240.114 189.422 235.204 L 205.541 235.204 C 205.659 240.138 205.78 246.02 205.865 252.27 Z " fill="url(#_lgradient_17)"/><linearGradient id="_lgradient_18" x1="0" y1="0" x2="1" y2="0" gradientTransform="matrix(0,-74.745,74.745,0,216.698,316.935)" gradientUnits="userSpaceOnUse"><stop offset="0%" stop-opacity="1" style="stop-color:rgb(217,217,216)"/><stop offset="100%" stop-opacity="1" style="stop-color:rgb(189,202,211)"/></linearGradient><path d=" M 222.45 252.27 L 206.333 252.27 C 206.26 245.917 206.26 240.072 206.29 235.204 L 222.409 235.204 C 222.38 240.061 222.379 245.923 222.45 252.27 Z " fill="url(#_lgradient_18)"/><linearGradient id="_lgradient_19" x1="0" y1="0" x2="1" y2="0" gradientTransform="matrix(0,-74.745,74.745,0,232.589,316.936)" gradientUnits="userSpaceOnUse"><stop offset="0%" stop-opacity="1" style="stop-color:rgb(217,217,216)"/><stop offset="100%" stop-opacity="1" style="stop-color:rgb(189,202,211)"/></linearGradient><path d=" M 239.687 252.27 L 223.571 252.27 C 223.574 245.976 223.624 240.108 223.685 235.204 L 239.801 235.204 C 239.741 240.096 239.691 245.975 239.687 252.27 Z " fill="url(#_lgradient_19)"/><linearGradient id="_lgradient_20" x1="0" y1="0" x2="1" y2="0" gradientTransform="matrix(0,-74.745,74.745,0,247.776,316.935)" gradientUnits="userSpaceOnUse"><stop offset="0%" stop-opacity="1" style="stop-color:rgb(217,217,216)"/><stop offset="100%" stop-opacity="1" style="stop-color:rgb(189,202,211)"/></linearGradient><path d=" M 257.831 252.27 L 241.717 252.27 C 241.741 246.171 241.707 240.357 241.642 235.204 L 257.747 235.204 C 257.81 240.08 257.852 245.927 257.831 252.27 Z " fill="url(#_lgradient_20)"/><linearGradient id="_lgradient_21" x1="0" y1="0" x2="1" y2="0" gradientTransform="matrix(0,-74.745,74.745,0,267.172,316.936)" gradientUnits="userSpaceOnUse"><stop offset="0%" stop-opacity="1" style="stop-color:rgb(217,217,216)"/><stop offset="100%" stop-opacity="1" style="stop-color:rgb(189,202,211)"/></linearGradient><path d=" M 274.238 252.27 L 258.12 252.27 C 258.175 245.961 258.283 240.102 258.397 235.204 L 274.518 235.204 C 274.404 240.077 274.295 245.954 274.238 252.27 Z " fill="url(#_lgradient_21)"/><linearGradient id="_lgradient_22" x1="0" y1="0" x2="1" y2="0" gradientTransform="matrix(0,-74.745,74.745,0,284.303,316.935)" gradientUnits="userSpaceOnUse"><stop offset="0%" stop-opacity="1" style="stop-color:rgb(217,217,216)"/><stop offset="100%" stop-opacity="1" style="stop-color:rgb(189,202,211)"/></linearGradient><path d=" M 292.357 252.27 L 276.249 252.27 L 276.249 235.204 L 292.357 235.204 L 292.357 252.27 Z " fill="url(#_lgradient_22)"/><linearGradient id="_lgradient_23" x1="0" y1="0" x2="1" y2="0" gradientTransform="matrix(0,-74.745,74.745,0,300.945,316.935)" gradientUnits="userSpaceOnUse"><stop offset="0%" stop-opacity="1" style="stop-color:rgb(217,217,216)"/><stop offset="100%" stop-opacity="1" style="stop-color:rgb(189,202,211)"/></linearGradient><path d=" M 310.525 252.27 L 294.413 252.27 C 294.372 245.964 294.261 240.082 294.137 235.204 L 310.259 235.204 C 310.382 240.107 310.49 245.968 310.525 252.27 Z " fill="url(#_lgradient_23)"/><linearGradient id="_lgradient_24" x1="0" y1="0" x2="1" y2="0" gradientTransform="matrix(0,-74.745,74.745,0,322.596,316.935)" gradientUnits="userSpaceOnUse"><stop offset="0%" stop-opacity="1" style="stop-color:rgb(217,217,216)"/><stop offset="100%" stop-opacity="1" style="stop-color:rgb(189,202,211)"/></linearGradient><path d=" M 327.056 252.27 L 310.913 252.27 C 310.805 245.947 310.806 240.105 310.851 235.204 L 326.971 235.204 C 326.93 240.368 326.946 246.179 327.056 252.27 Z " fill="url(#_lgradient_24)"/><linearGradient id="_lgradient_25" x1="0" y1="0" x2="1" y2="0" gradientTransform="matrix(0,-74.745,74.745,0,338.861,316.935)" gradientUnits="userSpaceOnUse"><stop offset="0%" stop-opacity="1" style="stop-color:rgb(217,217,216)"/><stop offset="100%" stop-opacity="1" style="stop-color:rgb(189,202,211)"/></linearGradient><path d=" M 345.207 252.27 L 329.082 252.27 C 328.89 245.956 328.771 240.09 328.696 235.204 L 344.815 235.204 C 344.892 240.103 345.014 245.98 345.207 252.27 Z " fill="url(#_lgradient_25)"/><linearGradient id="_lgradient_26" x1="0" y1="0" x2="1" y2="0" gradientTransform="matrix(0,-74.746,74.746,0,356.457,316.936)" gradientUnits="userSpaceOnUse"><stop offset="0%" stop-opacity="1" style="stop-color:rgb(217,217,216)"/><stop offset="100%" stop-opacity="1" style="stop-color:rgb(189,202,211)"/></linearGradient><path d=" M 363.318 252.27 L 347.173 252.27 C 346.724 246.154 346.449 240.214 346.281 235.204 L 360.885 235.204 C 361.423 235.204 361.935 235.084 362.394 234.869 C 362.567 240.003 362.851 246.113 363.318 252.27 Z " fill="url(#_lgradient_26)"/><linearGradient id="_lgradient_27" x1="0" y1="0" x2="1" y2="0" gradientTransform="matrix(0,20.721,-20.721,0,250.515,212.233)" gradientUnits="userSpaceOnUse"><stop offset="0%" stop-opacity="1" style="stop-color:rgb(217,217,216)"/><stop offset="100%" stop-opacity="1" style="stop-color:rgb(189,202,211)"/></linearGradient><path d=" M 360.885 235.204 L 346.281 235.204 L 344.815 235.204 L 328.696 235.204 L 326.971 235.204 L 310.851 235.204 L 310.259 235.204 L 294.137 235.204 L 292.357 235.204 L 276.249 235.204 L 274.518 235.204 L 258.397 235.204 L 257.747 235.204 L 241.642 235.204 L 239.801 235.204 L 223.685 235.204 L 222.409 235.204 L 206.29 235.204 L 205.541 235.204 L 189.422 235.204 L 187.368 235.204 L 171.249 235.204 L 170.192 235.204 L 154.085 235.204 L 153.44 235.204 L 140.145 235.204 C 138.985 235.204 137.95 234.646 137.295 233.785 C 136.838 233.183 136.565 232.434 136.565 231.624 L 136.565 229.85 L 364.465 229.85 L 364.465 231.624 C 364.465 233.055 363.615 234.296 362.394 234.869 C 361.935 235.084 361.423 235.204 360.885 235.204 Z " fill="url(#_lgradient_27)"/><path d=" M 385.727 237.903 C 385.727 239.387 384.524 240.588 383.042 240.588 L 116.958 240.588 C 115.476 240.588 114.273 239.387 114.273 237.903 L 114.273 210.161 C 114.273 208.679 115.476 207.477 116.958 207.477 L 383.042 207.477 C 384.524 207.477 385.727 208.679 385.727 210.161 L 385.727 237.903 Z " fill="rgb(164,141,141)"/><path d=" M 125.609 234.92 C 125.609 236.155 124.608 237.157 123.372 237.157 C 122.136 237.157 121.135 236.155 121.135 234.92 L 121.135 213.146 C 121.135 211.909 122.136 210.908 123.372 210.908 C 124.608 210.908 125.609 211.909 125.609 213.146 L 125.609 234.92 Z " fill="rgb(152,0,0)"/><path d=" M 140.507 234.92 C 140.507 236.155 139.505 237.157 138.269 237.157 C 137.033 237.157 136.032 236.155 136.032 234.92 L 136.032 213.146 C 136.032 211.909 137.033 210.908 138.269 210.908 C 139.505 210.908 140.507 211.909 140.507 213.146 L 140.507 234.92 Z " fill="rgb(152,0,0)"/><path d=" M 155.405 234.92 C 155.405 236.155 154.403 237.157 153.167 237.157 C 151.931 237.157 150.93 236.155 150.93 234.92 L 150.93 213.146 C 150.93 211.909 151.931 210.908 153.167 210.908 C 154.403 210.908 155.405 211.909 155.405 213.146 L 155.405 234.92 Z " fill="rgb(152,0,0)"/><path d=" M 170.302 234.92 C 170.302 236.155 169.3 237.157 168.064 237.157 C 166.829 237.157 165.826 236.155 165.826 234.92 L 165.826 213.146 C 165.826 211.909 166.829 210.908 168.064 210.908 C 169.3 210.908 170.302 211.909 170.302 213.146 L 170.302 234.92 Z " fill="rgb(152,0,0)"/><path d=" M 185.198 234.92 C 185.198 236.155 184.197 237.157 182.962 237.157 C 181.726 237.157 180.724 236.155 180.724 234.92 L 180.724 213.146 C 180.724 211.909 181.726 210.908 182.962 210.908 C 184.197 210.908 185.198 211.909 185.198 213.146 L 185.198 234.92 Z " fill="rgb(152,0,0)"/><path d=" M 200.097 234.92 C 200.097 236.155 199.095 237.157 197.859 237.157 C 196.624 237.157 195.622 236.155 195.622 234.92 L 195.622 213.146 C 195.622 211.909 196.624 210.908 197.859 210.908 C 199.095 210.908 200.097 211.909 200.097 213.146 L 200.097 234.92 Z " fill="rgb(152,0,0)"/><path d=" M 214.994 234.92 C 214.994 236.155 213.993 237.157 212.757 237.157 C 211.521 237.157 210.52 236.155 210.52 234.92 L 210.52 213.146 C 210.52 211.909 211.521 210.908 212.757 210.908 C 213.993 210.908 214.994 211.909 214.994 213.146 L 214.994 234.92 Z " fill="rgb(152,0,0)"/><path d=" M 229.892 234.92 C 229.892 236.155 228.89 237.157 227.653 237.157 C 226.418 237.157 225.417 236.155 225.417 234.92 L 225.417 213.146 C 225.417 211.909 226.418 210.908 227.653 210.908 C 228.89 210.908 229.892 211.909 229.892 213.146 L 229.892 234.92 Z " fill="rgb(152,0,0)"/><path d=" M 244.788 234.92 C 244.788 236.155 243.787 237.157 242.552 237.157 C 241.315 237.157 240.313 236.155 240.313 234.92 L 240.313 213.146 C 240.313 211.909 241.315 210.908 242.552 210.908 C 243.787 210.908 244.788 211.909 244.788 213.146 L 244.788 234.92 Z " fill="rgb(152,0,0)"/><path d=" M 259.687 234.92 C 259.687 236.155 258.685 237.157 257.448 237.157 C 256.213 237.157 255.212 236.155 255.212 234.92 L 255.212 213.146 C 255.212 211.909 256.213 210.908 257.448 210.908 C 258.685 210.908 259.687 211.909 259.687 213.146 L 259.687 234.92 Z " fill="rgb(152,0,0)"/><path d=" M 274.583 234.92 C 274.583 236.155 273.582 237.157 272.347 237.157 C 271.11 237.157 270.108 236.155 270.108 234.92 L 270.108 213.146 C 270.108 211.909 271.11 210.908 272.347 210.908 C 273.582 210.908 274.583 211.909 274.583 213.146 L 274.583 234.92 Z " fill="rgb(152,0,0)"/><path d=" M 289.48 234.92 C 289.48 236.155 288.479 237.157 287.243 237.157 C 286.007 237.157 285.006 236.155 285.006 234.92 L 285.006 213.146 C 285.006 211.909 286.007 210.908 287.243 210.908 C 288.479 210.908 289.48 211.909 289.48 213.146 L 289.48 234.92 Z " fill="rgb(152,0,0)"/><path d=" M 304.378 234.92 C 304.378 236.155 303.377 237.157 302.141 237.157 C 300.905 237.157 299.903 236.155 299.903 234.92 L 299.903 213.146 C 299.903 211.909 300.905 210.908 302.141 210.908 C 303.377 210.908 304.378 211.909 304.378 213.146 L 304.378 234.92 Z " fill="rgb(152,0,0)"/><path d=" M 319.276 234.92 C 319.276 236.155 318.274 237.157 317.038 237.157 C 315.803 237.157 314.802 236.155 314.802 234.92 L 314.802 213.146 C 314.802 211.909 315.803 210.908 317.038 210.908 C 318.274 210.908 319.276 211.909 319.276 213.146 L 319.276 234.92 Z " fill="rgb(152,0,0)"/><path d=" M 334.173 234.92 C 334.173 236.155 333.171 237.157 331.936 237.157 C 330.7 237.157 329.698 236.155 329.698 234.92 L 329.698 213.146 C 329.698 211.909 330.7 210.908 331.936 210.908 C 333.171 210.908 334.173 211.909 334.173 213.146 L 334.173 234.92 Z " fill="rgb(152,0,0)"/><path d=" M 349.07 234.92 C 349.07 236.155 348.069 237.157 346.833 237.157 C 345.598 237.157 344.595 236.155 344.595 234.92 L 344.595 213.146 C 344.595 211.909 345.598 210.908 346.833 210.908 C 348.069 210.908 349.07 211.909 349.07 213.146 L 349.07 234.92 Z " fill="rgb(152,0,0)"/><path d=" M 363.968 234.92 C 363.968 236.155 362.966 237.157 361.73 237.157 C 360.494 237.157 359.494 236.155 359.494 234.92 L 359.494 213.146 C 359.494 211.909 360.494 210.908 361.73 210.908 C 362.966 210.908 363.968 211.909 363.968 213.146 L 363.968 234.92 Z " fill="rgb(152,0,0)"/><path d=" M 379.365 234.92 C 379.365 236.155 378.364 237.157 377.128 237.157 C 375.893 237.157 374.891 236.155 374.891 234.92 L 374.891 213.146 C 374.891 211.909 375.893 210.908 377.128 210.908 C 378.364 210.908 379.365 211.909 379.365 213.146 L 379.365 234.92 Z " fill="rgb(152,0,0)"/><path d=" M 396.333 350.11 L 103.667 350.11 L 103.667 342.905 L 396.333 342.905 L 396.333 350.11 Z " fill="rgb(152,0,0)"/></g></svg>