<?xml version="1.0" standalone="no"?>
<!DOCTYPE svg PUBLIC "-//W3C//DTD SVG 20010904//EN"
 "http://www.w3.org/TR/2001/REC-SVG-20010904/DTD/svg10.dtd">
<svg version="1.0" xmlns="http://www.w3.org/2000/svg"
 width="1000.000000pt" height="1000.000000pt" viewBox="0 0 1000.000000 1000.000000"
 preserveAspectRatio="xMidYMid meet">
<metadata>
Created by potrace 1.11, written by Peter Selinger 2001-2013
</metadata>
<g transform="translate(0.000000,1000.000000) scale(0.100000,-0.100000)"
fill="#000000" stroke="none">
<path d="M4653 9886 c-24 -50 -70 -149 -104 -221 -138 -293 -364 -775 -400
-852 -70 -150 -115 -244 -274 -583 -87 -184 -172 -366 -190 -405 -18 -38 -88
-187 -155 -330 -67 -143 -135 -287 -150 -320 -15 -33 -51 -109 -80 -170 -29
-60 -120 -254 -202 -430 -83 -176 -168 -358 -190 -405 -22 -47 -55 -116 -73
-155 -33 -71 -167 -354 -257 -545 -28 -58 -60 -127 -73 -155 -12 -27 -41 -89
-64 -137 -71 -151 -122 -260 -156 -333 -48 -103 -266 -565 -318 -675 -24 -52
-56 -120 -70 -150 -28 -61 -88 -190 -167 -355 -29 -60 -80 -171 -115 -245 -35
-74 -84 -180 -110 -235 -26 -55 -62 -131 -80 -170 -18 -38 -51 -108 -73 -155
-100 -212 -291 -618 -352 -750 -37 -80 -89 -190 -115 -245 -26 -55 -65 -138
-87 -185 -50 -105 -102 -216 -138 -295 -15 -33 -52 -112 -83 -175 -30 -63 -66
-140 -80 -170 -14 -30 -50 -107 -80 -170 -30 -63 -66 -140 -80 -170 -14 -30
-45 -98 -70 -150 -24 -52 -61 -131 -82 -175 -21 -44 -62 -131 -91 -194 -30
-63 -52 -116 -50 -118 4 -5 7 -4 261 85 94 33 262 92 375 132 113 39 403 142
645 227 242 85 469 165 505 178 36 12 110 38 165 57 55 20 321 113 590 207
270 95 526 185 570 201 44 16 280 100 525 186 485 170 749 263 850 299 36 13
91 35 122 49 l57 27 -6 4132 c-3 2273 -6 4133 -7 4133 0 1 -20 -40 -43 -90z"/>
<path d="M5300 7769 c0 -1201 -3 -3060 -5 -4130 l-4 -1945 57 -28 c54 -27 615
-226 1857 -661 99 -35 257 -90 350 -123 94 -33 294 -104 445 -157 151 -53 439
-154 640 -225 201 -70 451 -158 555 -195 105 -37 317 -111 471 -166 155 -54
284 -99 287 -99 9 0 -2 27 -58 145 -26 55 -98 208 -160 340 -148 315 -185 394
-261 554 -35 73 -64 135 -64 137 0 2 -36 78 -80 170 -44 91 -80 167 -80 169 0
1 -24 54 -54 116 -52 110 -478 1016 -549 1169 -19 41 -55 118 -80 170 -24 52
-61 131 -82 175 -21 44 -64 136 -96 204 -33 67 -59 124 -59 126 0 2 -26 59
-59 127 -86 181 -131 276 -258 548 -64 135 -136 288 -160 340 -25 52 -73 156
-108 230 -35 74 -84 180 -110 235 -26 55 -83 177 -127 270 -148 313 -170 359
-238 505 -88 188 -182 389 -267 570 -25 52 -60 127 -78 165 -59 127 -342 728
-399 849 -31 65 -56 119 -56 121 0 1 -31 67 -69 146 -78 165 -54 115 -371 789
-134 283 -263 558 -287 610 -25 52 -71 151 -103 220 -32 69 -79 170 -105 225
-26 55 -88 185 -136 289 -49 105 -92 192 -94 195 -3 2 -5 -979 -5 -2180z"/>
</g>
</svg>
