<?xml version="1.0" encoding="UTF-8" standalone="no"?><!-- Generator: Gravit.io --><svg xmlns="http://www.w3.org/2000/svg" xmlns:xlink="http://www.w3.org/1999/xlink" style="isolation:isolate" viewBox="87.761 131.6 525.178 376.636" width="525.178pt" height="376.636pt"><defs><clipPath id="_clipPath_BZJsGJceeKfRu8y2Rkw6KS7Xw8ilBoZX"><rect x="87.761" y="131.6" width="525.178" height="376.636"/></clipPath></defs><g clip-path="url(#_clipPath_BZJsGJceeKfRu8y2Rkw6KS7Xw8ilBoZX)"><linearGradient id="_lgradient_0" x1="0" y1="0" x2="1" y2="0" gradientTransform="matrix(0,-85.246,85.246,0,368.416,493.504)" gradientUnits="userSpaceOnUse"><stop offset="0%" stop-opacity="1" style="stop-color:rgb(213,228,255)"/><stop offset="100%" stop-opacity="1" style="stop-color:rgb(237,255,254)"/></linearGradient><path d=" M 460.432 461.978 L 276.4 461.978 C 272.611 461.978 269.54 458.907 269.54 455.118 L 269.54 433.808 C 269.54 430.02 272.611 426.948 276.4 426.948 L 460.432 426.948 C 464.221 426.948 467.292 430.02 467.292 433.808 L 467.292 455.118 C 467.292 458.907 464.221 461.978 460.432 461.978 Z " fill="url(#_lgradient_0)"/><path d=" M 508.286 245.074 C 507.34 244.747 506.82 244.513 506.82 244.513 C 507.297 244.342 507.807 244.13 508.348 243.868 C 515.739 240.332 528.812 228.001 542.569 190.43 C 557.333 150.109 580.156 162.929 580.156 162.929 C 568.249 168.587 570.428 195.382 552.611 226.24 C 537.227 252.885 514.269 247.138 508.286 245.074 Z " fill="rgb(96,154,62)"/><linearGradient id="_lgradient_1" x1="0" y1="0" x2="1" y2="0" gradientTransform="matrix(35.441,-56.98,56.98,35.441,511.324,253.502)" gradientUnits="userSpaceOnUse"><stop offset="0%" stop-opacity="1" style="stop-color:rgb(60,97,39)"/><stop offset="0.518135%" stop-opacity="1" style="stop-color:rgb(60,97,39)"/><stop offset="100%" stop-opacity="1" style="stop-color:rgb(99,156,56)"/></linearGradient><path d=" M 508.286 245.074 C 507.34 244.747 506.82 244.513 506.82 244.513 C 507.297 244.342 507.807 244.13 508.348 243.868 C 519.764 240.923 533.86 233.726 541.026 219.44 C 546.51 208.523 554.833 185.757 554.912 185.531 L 556.012 185.927 C 555.925 186.155 547.582 208.99 542.073 219.968 C 534.658 234.731 520.037 242.11 508.286 245.074 Z " fill="url(#_lgradient_1)"/><path d=" M 562.158 252.42 C 525.504 272.365 509.918 243.14 508.741 240.796 C 508.69 240.694 508.667 240.646 508.667 240.646 C 509.759 240.823 510.837 240.953 511.894 241.018 C 540.108 243.073 556.918 210.547 576.727 198.698 C 597.273 186.407 612.939 201.81 612.939 201.81 C 593.459 195.381 600.316 231.648 562.158 252.42 Z " fill="rgb(96,154,62)"/><linearGradient id="_lgradient_2" x1="0" y1="0" x2="1" y2="0" gradientTransform="matrix(66.035,-52.259,52.259,66.035,517.22,251.511)" gradientUnits="userSpaceOnUse"><stop offset="0%" stop-opacity="1" style="stop-color:rgb(60,97,39)"/><stop offset="0.518135%" stop-opacity="1" style="stop-color:rgb(60,97,39)"/><stop offset="100%" stop-opacity="1" style="stop-color:rgb(99,156,56)"/></linearGradient><path d=" M 534.139 246.971 C 524.971 247.354 516.088 244.511 508.741 240.796 C 508.69 240.694 508.667 240.646 508.667 240.646 C 509.759 240.823 510.837 240.953 511.894 241.018 C 518.527 244.018 526.203 246.134 534.087 245.805 C 544.228 245.382 552.998 240.958 560.161 232.67 C 582.865 206.379 590.47 208.661 590.787 208.769 L 590.589 209.319 L 590.413 209.876 L 590.392 209.87 C 589.95 209.781 582.383 208.725 561.044 233.43 C 553.665 241.98 544.61 246.532 534.139 246.971 Z " fill="url(#_lgradient_2)"/><linearGradient id="_lgradient_3" x1="0" y1="0" x2="1" y2="0" gradientTransform="matrix(-216.914,-414.42,414.42,-216.914,491.386,523.926)" gradientUnits="userSpaceOnUse"><stop offset="0%" stop-opacity="1" style="stop-color:rgb(151,151,151)"/><stop offset="100%" stop-opacity="1" style="stop-color:rgb(237,255,254)"/></linearGradient><path d=" M 528.932 446.378 L 207.9 446.378 C 200.141 446.378 193.85 440.088 193.85 432.328 L 193.85 145.65 C 193.85 137.891 200.141 131.6 207.9 131.6 L 528.932 131.6 C 536.692 131.6 542.982 137.891 542.982 145.65 L 542.982 288.526 L 477.983 288.526 C 472.28 288.526 467.656 293.15 467.656 298.853 L 467.656 425.715 C 467.656 431.418 472.28 436.041 477.983 436.041 L 542.486 436.041 C 540.858 441.999 535.406 446.378 528.932 446.378 Z  M 212.133 423.325 L 212.133 427.704 L 343.034 427.704 L 343.034 423.325 L 309.82 423.325 C 316.036 422.177 321.962 420.19 327.47 417.487 L 413.871 417.487 L 413.871 413.108 L 335.108 413.108 C 337.782 411.338 340.325 409.386 342.719 407.27 L 398.838 407.27 L 398.838 402.892 L 347.237 402.892 C 358.811 390.606 365.904 374.052 365.904 355.841 C 365.904 317.94 335.179 287.214 297.277 287.214 C 281.125 287.214 266.278 292.792 254.556 302.13 C 253.562 301.636 252.53 301.193 251.461 300.806 C 251.397 300.783 251.332 300.76 251.268 300.737 C 248.032 299.59 244.728 299.045 241.477 299.045 C 241.476 299.045 241.474 299.045 241.473 299.045 L 241.473 299.045 L 241.473 299.045 L 241.473 299.045 C 235.851 299.045 230.391 300.673 225.732 303.632 C 225.673 303.669 225.614 303.707 225.555 303.744 C 225.526 303.764 225.496 303.783 225.467 303.802 C 220.305 307.157 216.153 312.159 213.895 318.393 C 213.67 319.013 213.467 319.638 213.286 320.263 C 212.468 323.095 212.096 325.963 212.137 328.786 C 212.287 339.657 218.516 349.86 228.658 354.77 C 228.653 355.127 228.65 355.482 228.65 355.841 C 228.65 361.284 229.283 366.579 230.481 371.656 L 212.133 371.656 L 212.133 376.182 L 231.714 376.182 C 232.25 377.91 232.851 379.607 233.517 381.273 L 212.133 381.273 L 212.133 385.799 L 235.516 385.799 C 238.576 392.094 242.57 397.852 247.317 402.892 L 212.133 402.892 L 212.133 407.27 L 251.835 407.27 C 254.229 409.386 256.772 411.338 259.445 413.108 L 212.133 413.108 L 212.133 417.487 L 267.084 417.487 C 272.592 420.19 278.517 422.177 284.734 423.325 L 212.133 423.325 Z  M 229.257 346.675 C 223.206 342.642 219.577 335.856 219.478 328.685 C 219.448 326.569 219.726 324.419 220.34 322.295 C 220.476 321.826 220.628 321.357 220.796 320.893 C 222.49 316.219 225.603 312.469 229.472 309.954 L 229.472 309.954 L 229.472 309.954 C 233.007 307.656 237.175 306.388 241.467 306.387 C 241.469 306.387 241.471 306.387 241.473 306.387 C 241.475 306.387 241.476 306.387 241.478 306.387 C 243.813 306.387 246.186 306.762 248.515 307.551 C 238.262 317.904 231.282 331.507 229.257 346.675 Z " fill-rule="evenodd" fill="url(#_lgradient_3)"/><path d=" M 233.981 349.058 C 225.136 345.854 219.601 337.565 219.478 328.685 C 219.448 326.569 219.726 324.419 220.34 322.295 C 220.476 321.826 220.628 321.357 220.796 320.893 C 222.49 316.219 225.603 312.469 229.472 309.954 C 235.057 306.324 242.217 305.264 248.961 307.708 C 251.188 308.514 253.204 309.643 254.977 311.021 C 262.3 316.714 265.477 326.679 262.147 335.872 C 258.01 347.291 245.401 353.194 233.981 349.058 Z  M 269.047 338.373 C 273.489 326.112 269.252 312.822 259.485 305.226 C 257.12 303.387 254.432 301.882 251.461 300.806 C 242.466 297.548 232.914 298.96 225.467 303.802 C 220.305 307.157 216.153 312.159 213.895 318.393 C 213.67 319.013 213.467 319.638 213.286 320.263 C 212.468 323.095 212.096 325.963 212.137 328.786 C 212.3 340.632 219.684 351.687 231.482 355.961 C 246.712 361.478 263.53 353.603 269.047 338.373 Z " fill="rgb(255,255,255)"/><path d=" M 229.472 309.954 L 225.467 303.802 C 232.914 298.96 242.466 297.548 251.461 300.806 C 254.432 301.882 257.12 303.387 259.485 305.226 L 254.977 311.021 C 253.204 309.643 251.188 308.514 248.961 307.708 C 242.217 305.264 235.057 306.324 229.472 309.954 Z " fill="rgb(0,0,0)"/><path d=" M 220.34 322.295 L 213.286 320.263 C 213.467 319.638 213.67 319.013 213.895 318.394 C 216.153 312.159 220.305 307.157 225.467 303.802 L 229.472 309.954 C 225.603 312.469 222.49 316.219 220.796 320.893 C 220.628 321.357 220.476 321.826 220.34 322.295 Z " fill="rgb(49,49,49)"/><path d=" M 212.137 328.786 C 212.096 325.963 212.468 323.095 213.286 320.263 L 220.34 322.295 C 219.726 324.419 219.448 326.569 219.478 328.686 L 212.137 328.786 Z " fill="rgb(125,125,125)"/><path d=" M 318.431 349.993 C 309.186 348.252 302.391 340.961 300.842 332.216 C 300.473 330.132 300.401 327.964 300.667 325.77 C 300.726 325.284 300.8 324.799 300.892 324.312 C 301.812 319.427 304.282 315.226 307.697 312.122 C 312.625 307.641 319.523 305.444 326.572 306.773 C 328.899 307.211 331.07 308.001 333.042 309.076 C 341.184 313.519 345.921 322.845 344.112 332.453 C 341.864 344.388 330.366 352.24 318.431 349.993 Z  M 351.325 333.812 C 353.738 320.997 347.421 308.56 336.56 302.633 C 333.931 301.198 331.035 300.144 327.931 299.56 C 318.529 297.789 309.328 300.718 302.755 306.693 C 298.2 310.834 294.906 316.437 293.678 322.954 C 293.556 323.602 293.456 324.252 293.377 324.897 C 293.025 327.824 293.119 330.714 293.613 333.494 C 295.677 345.159 304.742 354.884 317.072 357.207 C 332.991 360.205 348.326 349.732 351.325 333.812 Z " fill="rgb(255,255,255)"/><path d=" M 307.697 312.122 L 302.755 306.693 C 309.328 300.718 318.529 297.789 327.931 299.56 C 331.035 300.144 333.931 301.198 336.56 302.633 L 333.042 309.076 C 331.07 308.001 328.899 307.211 326.572 306.773 C 319.523 305.444 312.625 307.641 307.697 312.122 Z " fill="rgb(75,89,199)"/><path d=" M 300.667 325.77 L 293.377 324.897 C 293.456 324.252 293.556 323.602 293.678 322.954 C 294.906 316.437 298.2 310.834 302.755 306.693 L 307.697 312.122 C 304.282 315.226 301.812 319.427 300.892 324.312 C 300.8 324.799 300.726 325.284 300.667 325.77 Z " fill="rgb(111,91,224)"/><path d=" M 293.613 333.494 C 293.119 330.714 293.025 327.824 293.377 324.897 L 300.667 325.77 C 300.401 327.964 300.473 330.132 300.842 332.216 L 293.613 333.494 Z " fill="rgb(180,135,254)"/><path d=" M 422.945 338.712 C 418.526 347.018 409.541 351.329 400.731 350.2 C 398.631 349.932 396.542 349.353 394.526 348.445 C 394.081 348.245 393.639 348.028 393.202 347.796 C 388.813 345.461 385.54 341.851 383.595 337.665 C 380.788 331.625 380.748 324.387 384.118 318.055 C 385.23 315.964 386.631 314.127 388.246 312.565 C 394.914 306.118 405.228 304.377 413.86 308.969 C 424.582 314.674 428.649 327.99 422.945 338.712 Z  M 417.307 302.49 C 405.795 296.365 392.041 298.687 383.144 307.286 C 380.991 309.368 379.122 311.818 377.637 314.606 C 373.144 323.053 373.197 332.708 376.94 340.764 C 379.534 346.347 383.901 351.162 389.755 354.276 C 390.336 354.586 390.926 354.876 391.52 355.143 C 394.208 356.353 396.996 357.124 399.796 357.482 C 411.546 358.989 423.532 353.237 429.425 342.16 C 437.034 327.859 431.608 310.099 417.307 302.49 Z " fill="rgb(255,255,255)"/><path d=" M 383.595 337.665 L 376.94 340.764 C 373.197 332.708 373.144 323.053 377.637 314.606 C 379.122 311.818 380.991 309.368 383.144 307.286 L 388.246 312.565 C 386.631 314.127 385.23 315.964 384.118 318.055 C 380.748 324.387 380.788 331.625 383.595 337.665 Z " fill="rgb(4,104,4)"/><path d=" M 394.526 348.445 L 391.52 355.143 C 390.926 354.876 390.336 354.586 389.755 354.276 C 383.901 351.162 379.534 346.347 376.94 340.764 L 383.595 337.665 C 385.54 341.851 388.813 345.461 393.202 347.796 C 393.639 348.028 394.081 348.245 394.526 348.445 Z " fill="rgb(2,4,2)"/><path d=" M 399.796 357.482 C 396.996 357.124 394.208 356.353 391.52 355.143 L 394.526 348.445 C 396.542 349.353 398.631 349.932 400.731 350.2 L 399.796 357.482 Z " fill="rgb(60,97,39)"/><path d=" M 270.809 376.182 L 212.133 376.182 L 212.133 371.656 L 270.809 371.656 L 270.809 376.182 Z " fill="rgb(196,196,196)"/><path d=" M 256.043 385.799 L 212.133 385.799 L 212.133 381.273 L 256.043 381.273 L 256.043 385.799 Z " fill="rgb(196,196,196)"/><path d=" M 325.518 376.182 L 293.164 376.182 L 293.164 371.656 L 325.518 371.656 L 325.518 376.182 Z " fill="rgb(196,196,196)"/><path d=" M 341.19 385.799 L 293.164 385.799 L 293.164 381.273 L 341.19 381.273 L 341.19 385.799 Z " fill="rgb(196,196,196)"/><path d=" M 415.477 376.182 L 379.518 376.182 L 379.518 371.656 L 415.477 371.656 L 415.477 376.182 Z " fill="rgb(196,196,196)"/><path d=" M 421.169 385.799 L 379.518 385.799 L 379.518 381.273 L 421.169 381.273 L 421.169 385.799 Z " fill="rgb(196,196,196)"/><path d=" M 513.208 183.662 L 470.54 183.662 L 470.54 179.381 L 513.208 179.381 L 513.208 183.662 Z " fill="rgb(0,210,161)"/><path d=" M 519.582 196.915 L 470.54 196.915 L 470.54 192.633 L 519.582 192.633 L 519.582 196.915 Z " fill="rgb(13,145,118)"/><path d=" M 495.839 210.094 L 470.467 210.094 L 470.467 205.813 L 495.839 205.813 L 495.839 210.094 Z " fill="rgb(4,104,4)"/><path d=" M 509.559 223.273 L 470.467 223.273 L 470.467 218.992 L 509.559 218.992 L 509.559 223.273 Z " fill="rgb(0,142,78)"/><path d=" M 398.838 407.27 L 212.133 407.27 L 212.133 402.892 L 398.838 402.892 L 398.838 407.27 Z " fill="rgb(255,255,255)"/><path d=" M 413.871 417.487 L 212.133 417.487 L 212.133 413.108 L 413.871 413.108 L 413.871 417.487 Z " fill="rgb(255,255,255)"/><path d=" M 343.034 427.704 L 212.133 427.704 L 212.133 423.325 L 343.034 423.325 L 343.034 427.704 Z " fill="rgb(255,255,255)"/><path d=" M 309.349 407.27 L 212.133 407.27 L 212.133 402.892 L 309.349 402.892 L 309.349 407.27 Z " fill="rgb(0,142,78)"/><path d=" M 317.177 417.487 L 212.133 417.487 L 212.133 413.108 L 317.177 413.108 L 317.177 417.487 Z " fill="rgb(0,142,78)"/><path d=" M 280.292 427.704 L 212.133 427.704 L 212.133 423.325 L 280.292 423.325 L 280.292 427.704 Z " fill="rgb(0,142,78)"/><path d=" M 277.438 264.572 L 239.408 264.572 L 239.408 259.887 L 277.438 259.887 L 277.438 264.572 Z " fill="rgb(214,214,214)"/><path d=" M 286.666 256.228 L 230.181 256.228 L 230.181 251.543 L 286.666 251.543 L 286.666 256.228 Z " fill="rgb(214,214,214)"/><linearGradient id="_lgradient_4" x1="0" y1="0" x2="1" y2="0" gradientTransform="matrix(0,105.109,-105.109,0,258.51,161.375)" gradientUnits="userSpaceOnUse"><stop offset="0%" stop-opacity="1" style="stop-color:rgb(64,230,175)"/><stop offset="98.69565217391305%" stop-opacity="1" style="stop-color:rgb(13,145,118)"/></linearGradient><path d=" M 268.329 187.228 C 268.329 192.651 263.933 197.047 258.509 197.047 C 253.086 197.047 248.69 192.651 248.69 187.228 C 248.69 181.805 253.086 177.408 258.509 177.408 C 263.933 177.408 268.329 181.805 268.329 187.228 Z " fill="url(#_lgradient_4)"/><linearGradient id="_lgradient_5" x1="0" y1="0" x2="1" y2="0" gradientTransform="matrix(0,105.109,-105.109,0,258.423,161.375)" gradientUnits="userSpaceOnUse"><stop offset="0%" stop-opacity="1" style="stop-color:rgb(0,142,78)"/><stop offset="98.26086956521739%" stop-opacity="1" style="stop-color:rgb(0,210,161)"/></linearGradient><path d=" M 276.223 219.24 L 276.223 237.915 C 270.799 240.381 264.77 241.752 258.423 241.752 C 252.077 241.752 246.047 240.381 240.624 237.915 L 240.624 219.24 C 240.624 209.413 248.59 201.44 258.423 201.44 C 268.257 201.44 276.223 209.413 276.223 219.24 Z " fill="url(#_lgradient_5)"/><path d=" M 411.341 178.602 L 319.875 178.602 L 319.875 172.706 L 411.341 172.706 L 411.341 178.602 Z " fill="rgb(255,255,255)"/><path d=" M 456.715 178.602 L 421.169 178.602 L 421.169 172.706 L 456.715 172.706 L 456.715 178.602 Z " fill="rgb(255,255,255)"/><path d=" M 362.826 165.174 L 319.875 165.174 L 319.875 159.278 L 362.826 159.278 L 362.826 165.174 Z " fill="rgb(255,255,255)"/><path d=" M 321.21 265.558 L 320.442 265.558 L 320.442 195.683 L 321.21 195.683 L 321.21 265.558 Z " fill="rgb(189,225,255)"/><path d=" M 340.678 265.558 L 339.91 265.558 L 339.91 195.683 L 340.678 195.683 L 340.678 265.558 Z " fill="rgb(189,225,255)"/><path d=" M 360.145 265.558 L 359.377 265.558 L 359.377 195.683 L 360.145 195.683 L 360.145 265.558 Z " fill="rgb(189,225,255)"/><path d=" M 379.613 265.558 L 378.845 265.558 L 378.845 195.683 L 379.613 195.683 L 379.613 265.558 Z " fill="rgb(189,225,255)"/><path d=" M 399.081 265.558 L 398.312 265.558 L 398.312 195.683 L 399.081 195.683 L 399.081 265.558 Z " fill="rgb(189,225,255)"/><path d=" M 418.547 265.558 L 417.78 265.558 L 417.78 195.683 L 418.547 195.683 L 418.547 265.558 Z " fill="rgb(189,225,255)"/><path d=" M 438.015 265.558 L 437.248 265.558 L 437.248 195.683 L 438.015 195.683 L 438.015 265.558 Z " fill="rgb(189,225,255)"/><path d=" M 457.483 265.558 L 456.715 265.558 L 456.715 195.683 L 457.483 195.683 L 457.483 265.558 Z " fill="rgb(189,225,255)"/><path d=" M 320.826 242.42 L 334.084 229.162 L 340.538 235.615 L 354.644 221.509 L 365.821 232.686 L 380.125 218.381 L 389.926 228.183 L 414.881 203.227 L 433.584 221.93 L 444.91 210.604 L 457.099 222.793 L 457.099 265.558 L 320.826 265.558 L 320.826 242.42 Z " fill="rgb(4,104,4)"/><path d=" M 320.826 251.201 L 331.425 240.603 L 338.123 247.301 L 345.876 239.546 L 360.487 254.156 L 378.753 235.889 L 385.305 242.441 L 404.151 223.595 L 421.363 240.807 L 457.068 205.101 L 457.068 265.558 L 320.826 265.558 L 320.826 251.201 Z " fill="rgb(3,221,123)"/><path d=" M 328.601 189.796 L 320.442 189.796 L 320.442 191.524 L 328.601 191.524 L 328.601 189.796 Z " fill="rgb(189,225,255)"/><path d=" M 345.494 189.796 L 339.91 189.796 L 339.91 191.524 L 345.494 191.524 L 345.494 189.796 Z " fill="rgb(189,225,255)"/><path d=" M 366.274 189.796 L 359.377 189.796 L 359.377 191.524 L 366.274 191.524 L 366.274 189.796 Z " fill="rgb(189,225,255)"/><path d=" M 383.982 189.796 L 378.845 189.796 L 378.845 191.524 L 383.982 191.524 L 383.982 189.796 Z " fill="rgb(189,225,255)"/><path d=" M 402.603 189.796 L 398.312 189.796 L 398.312 191.524 L 402.603 191.524 L 402.603 189.796 Z " fill="rgb(189,225,255)"/><path d=" M 426.119 189.796 L 417.78 189.796 L 417.78 191.524 L 426.119 191.524 L 426.119 189.796 Z " fill="rgb(189,225,255)"/><path d=" M 443.059 189.796 L 437.248 189.796 L 437.248 191.524 L 443.059 191.524 L 443.059 189.796 Z " fill="rgb(189,225,255)"/><path d=" M 460.383 189.796 L 456.715 189.796 L 456.715 191.524 L 460.383 191.524 L 460.383 189.796 Z " fill="rgb(189,225,255)"/><path d=" M 566.362 436.041 L 542.486 436.041 C 542.809 434.858 542.982 433.614 542.982 432.328 L 542.982 288.526 L 566.362 288.526 C 572.066 288.526 576.689 293.15 576.689 298.853 L 576.689 425.715 C 576.689 431.418 572.066 436.041 566.362 436.041 Z " fill="rgb(253,253,253)"/><linearGradient id="_lgradient_6" x1="0" y1="0" x2="1" y2="0" gradientTransform="matrix(-216.914,-414.42,414.42,-216.914,491.386,523.926)" gradientUnits="userSpaceOnUse"><stop offset="0%" stop-opacity="1" style="stop-color:rgb(244,248,255)"/><stop offset="100%" stop-opacity="1" style="stop-color:rgb(250,255,255)"/></linearGradient><path d=" M 542.486 436.041 L 477.983 436.041 C 472.28 436.041 467.656 431.418 467.656 425.715 L 467.656 298.853 C 467.656 293.15 472.28 288.526 477.983 288.526 L 542.982 288.526 L 542.982 432.328 C 542.982 433.614 542.809 434.858 542.486 436.041 Z " fill="url(#_lgradient_6)"/><path d=" M 496.63 411.91 L 493.418 411.91 L 493.418 312.658 L 496.63 312.658 L 496.63 411.91 Z " fill="rgb(214,214,214)"/><path d=" M 514.729 411.91 L 511.518 411.91 L 511.518 312.658 L 514.729 312.658 L 514.729 411.91 Z " fill="rgb(214,214,214)"/><path d=" M 532.828 411.91 L 529.617 411.91 L 529.617 312.658 L 532.828 312.658 L 532.828 411.91 Z " fill="rgb(214,214,214)"/><path d=" M 550.926 411.91 L 547.715 411.91 L 547.715 312.658 L 550.926 312.658 L 550.926 411.91 Z " fill="rgb(214,214,214)"/><linearGradient id="_lgradient_7" x1="0" y1="0" x2="1" y2="0" gradientTransform="matrix(0,91.324,-91.324,0,495.025,351.191)" gradientUnits="userSpaceOnUse"><stop offset="0%" stop-opacity="1" style="stop-color:rgb(255,192,92)"/><stop offset="100%" stop-opacity="1" style="stop-color:rgb(255,56,87)"/></linearGradient><path d=" M 498.041 402.568 L 492.008 402.568 L 492.008 362.284 L 498.041 362.284 L 498.041 402.568 Z " fill="url(#_lgradient_7)"/><linearGradient id="_lgradient_8" x1="0" y1="0" x2="1" y2="0" gradientTransform="matrix(0,91.324,-91.324,0,513.124,351.191)" gradientUnits="userSpaceOnUse"><stop offset="0%" stop-opacity="1" style="stop-color:rgb(255,192,92)"/><stop offset="100%" stop-opacity="1" style="stop-color:rgb(255,56,87)"/></linearGradient><path d=" M 516.14 368.706 L 510.107 368.706 L 510.107 328.422 L 516.14 328.422 L 516.14 368.706 Z " fill="url(#_lgradient_8)"/><linearGradient id="_lgradient_9" x1="0" y1="0" x2="1" y2="0" gradientTransform="matrix(0,91.324,-91.324,0,531.222,351.19)" gradientUnits="userSpaceOnUse"><stop offset="0%" stop-opacity="1" style="stop-color:rgb(255,192,92)"/><stop offset="100%" stop-opacity="1" style="stop-color:rgb(255,56,87)"/></linearGradient><path d=" M 534.239 391.329 L 528.206 391.329 L 528.206 351.045 L 534.239 351.045 L 534.239 391.329 Z " fill="url(#_lgradient_9)"/><linearGradient id="_lgradient_10" x1="0" y1="0" x2="1" y2="0" gradientTransform="matrix(0,91.327,-91.327,0,549.321,351.19)" gradientUnits="userSpaceOnUse"><stop offset="0%" stop-opacity="1" style="stop-color:rgb(255,192,92)"/><stop offset="100%" stop-opacity="1" style="stop-color:rgb(255,56,87)"/></linearGradient><path d=" M 552.337 386.659 L 546.304 386.659 L 546.304 346.374 L 552.337 346.374 L 552.337 386.659 Z " fill="url(#_lgradient_10)"/><linearGradient id="_lgradient_11" x1="0" y1="0" x2="1" y2="0" gradientTransform="matrix(0,103.924,-103.924,0,258.423,169.743)" gradientUnits="userSpaceOnUse"><stop offset="0%" stop-opacity="1" style="stop-color:rgb(211,218,224)"/><stop offset="100%" stop-opacity="1" style="stop-color:rgb(255,255,255)"/></linearGradient><path d=" M 258.423 156.783 C 235.319 156.783 216.522 175.58 216.522 198.684 C 216.522 215.083 226.172 230.064 241.107 236.852 C 246.554 239.329 252.38 240.585 258.423 240.585 C 264.467 240.585 270.293 239.329 275.739 236.852 C 290.674 230.064 300.324 215.083 300.324 198.684 C 300.324 175.58 281.528 156.783 258.423 156.783 Z  M 258.423 242.92 C 252.044 242.92 245.893 241.594 240.14 238.978 C 224.375 231.812 214.187 215.996 214.187 198.684 C 214.187 174.292 234.031 154.448 258.423 154.448 C 282.815 154.448 302.66 174.292 302.66 198.684 C 302.66 215.996 292.472 231.812 276.706 238.978 C 270.954 241.594 264.803 242.92 258.423 242.92 Z " fill-rule="evenodd" fill="url(#_lgradient_11)"/><path d=" M 139.395 350.311 C 139.395 350.311 147.589 331.748 138.083 333.284 C 138.083 333.284 134.847 335.96 131.526 341.409 C 129.01 345.537 123.78 356.462 123.974 360.158 C 124.167 363.852 126.796 366.608 129.634 372.542 C 129.634 372.542 135.533 383.557 135.782 384.884 L 142.019 381.646 C 142.019 381.646 136.734 371.115 133.009 361.856 L 139.395 350.311 Z " fill="rgb(111,91,224)"/><linearGradient id="_lgradient_12" x1="0" y1="0" x2="1" y2="0" gradientTransform="matrix(129.179,0,0,129.179,87.761,384.608)" gradientUnits="userSpaceOnUse"><stop offset="0%" stop-opacity="1" style="stop-color:rgb(255,159,85)"/><stop offset="100%" stop-opacity="1" style="stop-color:rgb(255,210,85)"/></linearGradient><path d=" M 91.396 405.969 L 216.94 384.592 L 213.306 363.248 L 87.761 384.625 L 91.396 405.969 Z " fill="url(#_lgradient_12)"/><path d=" M 216.502 382.021 L 223.208 380.878 L 220.45 364.678 L 213.744 365.819 L 216.502 382.021 Z " fill="rgb(45,48,56)"/><path d=" M 186.824 507.573 L 188.371 507.573 C 188.371 507.573 187.855 501.733 189.287 501.677 C 190.717 501.619 194.266 506.428 196.385 507.173 C 198.502 507.916 209.378 508.545 209.436 506.542 C 209.493 504.54 205.258 503.736 203.941 503.165 C 202.625 502.593 196.213 496.353 195.068 495.609 C 193.923 494.864 191.969 489.69 191.969 489.69 L 185.898 489.421 C 185.898 489.421 185.555 494.257 185.187 496.817 C 185.05 497.765 184.951 498.628 184.936 499.216 C 184.879 501.391 186.824 507.573 186.824 507.573 Z " fill="rgb(238,168,134)"/><path d=" M 147.711 506.419 L 149 506.419 L 149 500.983 C 150.072 501.074 153.68 504.487 154.796 505.476 C 155.911 506.462 157.442 506.419 162.145 506.717 C 166.846 507.017 167.289 504.202 166.545 503.244 C 165.801 502.286 163.396 501.866 162.145 501.269 C 160.893 500.67 155.955 495.101 154.638 493.783 C 153.322 492.467 152.52 488.694 152.52 488.694 L 147.024 489.173 C 147.024 489.173 147.06 492.625 146.433 495.52 L 146.433 495.521 L 146.428 495.543 C 146.375 495.79 146.316 496.032 146.252 496.268 C 145.436 499.277 147.711 506.419 147.711 506.419 Z " fill="rgb(238,168,134)"/><path d=" M 168.03 383.23 C 168.03 383.23 170.107 388.142 170.291 389.382 C 170.474 390.623 175.336 402.375 176.742 410.298 C 177.584 415.041 179.908 429.89 180.096 431.777 C 180.418 435.008 181.94 442.141 182.174 445.44 C 182.305 447.285 191.391 475.603 193.59 490.387 C 193.59 490.387 188.364 491.161 184.439 490.123 C 184.439 490.123 176.462 474.844 172.033 453.17 C 169.366 440.117 167.006 433.157 164.94 427.781 C 162.874 422.405 151.169 407.179 149.947 405.469 C 148.725 403.758 141.07 394.305 148.319 384.063 C 155.567 373.822 168.03 383.23 168.03 383.23 Z " fill="rgb(29,59,84)"/><path d=" M 141.864 426.73 C 142.527 431.14 141.83 436.932 140.445 453.053 C 139.059 469.173 142.869 488.693 142.869 488.693 C 147.654 490.331 153.165 488.693 153.165 488.693 C 153.038 487.56 153.165 449.399 153.165 445.999 C 153.165 442.599 154.141 438.74 154.392 434.837 C 154.564 432.177 155.802 427.273 157.194 422.267 C 157.611 420.767 158.042 419.26 158.461 417.799 L 158.461 417.798 C 158.698 416.979 158.928 416.174 159.153 415.396 C 161.114 408.595 163.751 382.335 163.751 382.335 C 163.751 382.335 149.135 370.562 142.019 381.646 C 134.902 392.728 138.556 400.787 138.807 402.173 C 139.059 403.56 141.201 422.323 141.864 426.73 Z " fill="rgb(29,59,84)"/><path d=" M 147.924 403.047 C 148.038 403.299 155.32 419.464 157.194 422.267 C 157.611 420.767 158.042 419.26 158.461 417.799 L 158.461 417.798 C 158.461 417.798 148.168 403.402 147.924 403.047 Z " fill="rgb(18,37,54)"/><path d=" M 147.711 506.419 L 149 506.419 L 149 500.983 C 150.072 501.074 153.68 504.487 154.796 505.476 C 155.911 506.462 157.442 506.419 162.145 506.717 C 166.846 507.017 167.289 504.202 166.545 503.244 C 165.801 502.286 163.396 501.866 162.145 501.269 C 157.115 501.537 150.978 494.467 148.032 494.481 C 146.466 494.489 146.481 495.356 146.433 495.52 L 146.433 495.521 L 146.428 495.543 C 146.375 495.79 146.316 496.032 146.252 496.268 C 145.436 499.277 147.711 506.419 147.711 506.419 Z " fill="rgb(23,47,66)"/><path d=" M 186.824 507.573 L 188.371 507.573 C 188.371 507.573 187.855 501.733 189.287 501.677 C 190.717 501.619 194.266 506.428 196.385 507.173 C 198.502 507.916 209.378 508.545 209.436 506.542 C 209.493 504.54 205.258 503.736 203.941 503.165 C 199.455 503.154 192.16 498.218 189.897 497.217 C 187.636 496.216 185.187 496.817 185.187 496.817 C 185.05 497.765 184.951 498.628 184.936 499.216 C 184.879 501.391 186.824 507.573 186.824 507.573 Z " fill="rgb(23,47,66)"/><path d=" M 155.126 321.583 C 155.126 321.583 152.794 327.754 154.608 332.522 C 154.608 332.522 146.056 331.966 145.732 330.969 C 145.408 329.97 146.076 320.725 144.9 317.992 C 143.724 315.26 155.126 321.583 155.126 321.583 Z " fill="rgb(238,168,134)"/><path d=" M 155.952 330.436 C 155.952 330.436 161.005 332.232 163.289 332.732 C 165.572 333.231 170.35 335.494 169.961 344.014 C 169.573 352.533 168.147 359.921 167.629 363.582 C 167.111 367.243 167.435 376.562 168.277 381.087 C 168.277 381.087 156.163 384.148 141.91 381.087 C 141.91 381.087 144.437 373.366 144.372 371.369 C 144.307 369.373 135.95 352.933 135.561 350.337 C 135.172 347.741 133.488 336.293 137.311 333.764 C 141.133 331.234 144.242 331.567 145.862 330.436 C 147.481 329.304 153.588 329.624 155.952 330.436 Z " fill="rgb(111,91,224)"/><path d=" M 136.454 394.475 C 157.151 399.966 173.622 394.497 173.622 394.497 C 172.12 391.409 171.015 388.329 170.215 385.348 L 170.214 385.345 C 169.647 383.237 169.234 381.182 168.939 379.205 L 168.939 379.204 C 167.257 367.928 169.451 359.294 169.451 359.294 C 167.062 339.632 137.311 333.763 134.928 339.996 C 132.545 346.229 139.545 373.014 139.9 375.311 C 140.255 377.606 136.454 394.475 136.454 394.475 Z " fill="rgb(111,91,224)"/><path d=" M 147.672 296.827 C 151.11 295.648 160.403 294.393 162.783 308.656 C 165.164 322.92 159.979 323.165 154.652 322.759 C 149.326 322.354 140.994 312.726 140.356 309.799 C 139.718 306.873 137.863 300.192 147.672 296.827 Z " fill="rgb(238,168,134)"/><path d=" M 160.868 302.305 C 160.868 302.305 158.03 308.377 154.306 310.494 C 154.306 310.494 151.974 316.946 146.923 319.556 C 146.923 319.556 133.519 310.676 141.297 300.125 C 149.075 289.573 159.99 297.976 160.868 302.305 Z " fill="rgb(232,115,77)"/><path d=" M 154.636 308.389 C 154.334 307.647 152.325 306.44 151.424 308.476 C 150.523 310.512 153.758 314.098 154.645 313.905 C 155.531 313.711 155.78 311.205 154.636 308.389 Z " fill="rgb(238,168,134)"/><path d=" M 141.75 301.755 C 141.457 301.298 132.581 297.189 130.735 305.775 C 128.889 314.362 137.883 324.346 139.459 328.639 C 141.036 332.932 138.748 342.994 138.748 342.994 C 138.748 342.994 144.16 337.878 145.797 332.522 C 147.595 326.642 148.199 311.813 141.75 301.755 Z " fill="rgb(232,115,77)"/><path d=" M 141.303 301.462 C 141.303 301.462 144.02 303.612 144.37 307.004 C 144.37 307.004 144.88 304.358 143.784 302.742 C 142.689 301.125 141.303 301.462 141.303 301.462 Z " fill="rgb(229,66,66)"/><path d=" M 170.214 385.345 C 169.647 383.237 169.234 381.182 168.939 379.205 L 168.939 379.204 C 168.939 379.204 167.576 376.303 167.115 374.916 C 166.654 373.53 163.228 356.484 163.228 356.484 C 163.228 356.484 159.603 372.493 170.214 385.345 Z " fill="rgb(29,59,84)"/><path d=" M 185.451 386.335 C 185.451 386.335 188.119 388.984 188.982 389.252 C 189.845 389.519 191.509 388.049 197.638 387.594 C 198.176 387.554 199.122 388.038 198.899 388.749 C 198.676 389.46 196.009 391.394 194.867 391.689 C 193.726 391.984 188.34 394.124 185.715 393.074 C 183.09 392.023 181.304 388.684 181.304 388.684 L 185.451 386.335 Z " fill="rgb(238,168,134)"/><path d=" M 164.718 333.199 C 164.718 333.199 171.806 336.008 172.225 345.858 C 172.645 355.71 173.03 360.853 173.415 362.373 C 173.799 363.894 174.535 370.004 176.318 373.682 C 178.049 377.249 189.406 388.539 189.406 388.539 L 183.91 393.708 C 183.91 393.708 168.077 377.82 167.115 374.916 C 166.153 372.012 162.195 351.798 161.88 348.39 C 161.625 345.642 158.003 333.403 164.718 333.199 Z " fill="rgb(111,91,224)"/><linearGradient id="_lgradient_13" x1="0" y1="0" x2="1" y2="0" gradientTransform="matrix(-216.914,-414.42,414.42,-216.914,491.386,523.926)" gradientUnits="userSpaceOnUse"><stop offset="0%" stop-opacity="1" style="stop-color:rgb(210,224,248)"/><stop offset="100%" stop-opacity="1" style="stop-color:rgb(232,248,247)"/></linearGradient><path d=" M 309.82 423.325 L 284.734 423.325 C 278.517 422.177 272.592 420.19 267.084 417.487 L 317.177 417.487 L 327.47 417.487 C 321.962 420.19 316.036 422.177 309.82 423.325 Z  M 335.108 413.108 L 259.445 413.108 C 256.772 411.338 254.229 409.386 251.835 407.27 L 309.349 407.27 L 342.719 407.27 C 340.325 409.386 337.782 411.338 335.108 413.108 Z  M 347.237 402.892 L 247.317 402.892 C 242.57 397.852 238.576 392.094 235.516 385.799 L 256.043 385.799 L 256.043 381.273 L 233.517 381.273 C 232.851 379.607 232.25 377.91 231.714 376.182 L 270.809 376.182 L 270.809 371.656 L 230.481 371.656 C 229.283 366.579 228.65 361.284 228.65 355.841 C 228.65 355.482 228.653 355.127 228.658 354.77 C 229.568 355.211 230.51 355.609 231.482 355.961 C 234.779 357.155 238.153 357.722 241.468 357.722 C 253.467 357.723 264.725 350.305 269.047 338.373 C 273.207 326.892 269.756 314.508 261.281 306.743 C 269.58 306.751 283.138 307.769 297.522 312.996 C 295.691 315.968 294.363 319.319 293.678 322.954 C 293.556 323.602 293.456 324.252 293.377 324.897 C 293.234 326.086 293.165 327.269 293.166 328.441 C 293.167 330.154 293.32 331.843 293.613 333.494 L 293.613 333.494 C 295.677 345.159 304.742 354.884 317.072 357.207 C 318.906 357.552 320.734 357.719 322.534 357.719 C 329.974 357.72 336.973 354.877 342.267 350.056 C 348.048 359.909 352.668 371.971 355.456 386.737 L 355.457 386.736 C 360.36 377.522 363.138 367.007 363.138 355.841 C 363.138 339.81 357.409 325.115 347.889 313.694 C 345.226 309.097 341.332 305.237 336.56 302.633 C 336.043 302.35 335.515 302.083 334.977 301.831 C 324.297 294.361 311.299 289.98 297.277 289.98 C 282.183 289.98 268.274 295.058 257.168 303.599 C 256.33 303.069 255.459 302.578 254.556 302.13 C 266.278 292.792 281.125 287.214 297.277 287.214 C 335.179 287.214 365.904 317.94 365.904 355.841 C 365.904 374.052 358.811 390.606 347.237 402.892 Z  M 293.164 381.273 L 293.164 385.799 L 341.19 385.799 L 341.19 381.273 L 293.164 381.273 Z  M 293.164 371.656 L 293.164 376.182 L 325.518 376.182 L 325.518 371.656 L 293.164 371.656 Z  M 241.47 350.379 C 238.983 350.379 236.455 349.954 233.981 349.058 C 232.279 348.441 230.699 347.636 229.257 346.675 C 231.282 331.507 238.262 317.904 248.515 307.551 C 248.607 307.582 248.699 307.614 248.792 307.647 C 248.816 307.656 248.841 307.664 248.865 307.673 C 248.87 307.675 248.876 307.677 248.881 307.679 C 248.907 307.688 248.934 307.698 248.961 307.708 L 248.961 307.708 C 251.188 308.514 253.204 309.643 254.977 311.021 L 254.977 311.021 C 262.3 316.714 265.477 326.679 262.147 335.872 C 258.906 344.818 250.465 350.379 241.47 350.379 Z  M 322.525 350.377 C 321.175 350.377 319.806 350.252 318.431 349.993 C 309.186 348.252 302.391 340.961 300.842 332.216 C 300.623 330.978 300.508 329.711 300.507 328.427 C 300.507 327.548 300.559 326.661 300.667 325.77 L 300.667 325.77 L 300.667 325.77 C 300.726 325.284 300.8 324.799 300.892 324.312 C 301.485 321.163 302.722 318.298 304.441 315.828 C 316.446 321.32 328.535 330.031 338.218 343.766 C 334.162 347.903 328.534 350.377 322.525 350.377 Z " fill-rule="evenodd" fill="url(#_lgradient_13)"/><path d=" M 241.468 357.722 C 238.153 357.722 234.779 357.155 231.482 355.961 C 230.51 355.609 229.568 355.211 228.658 354.77 C 228.7 352.03 228.902 349.328 229.257 346.675 C 230.699 347.636 232.279 348.441 233.981 349.058 C 236.455 349.954 238.983 350.379 241.47 350.379 C 250.465 350.379 258.906 344.818 262.147 335.872 C 265.477 326.679 262.3 316.714 254.977 311.021 L 258.272 306.785 C 259.146 306.759 260.116 306.743 261.172 306.743 C 261.208 306.743 261.244 306.743 261.281 306.743 C 269.756 314.508 273.207 326.892 269.047 338.373 C 264.725 350.305 253.467 357.723 241.468 357.722 Z  M 248.961 307.708 C 248.934 307.698 248.907 307.688 248.881 307.679 C 248.907 307.688 248.934 307.698 248.961 307.708 Z  M 248.865 307.673 C 248.841 307.664 248.816 307.656 248.792 307.647 C 248.816 307.656 248.841 307.664 248.865 307.673 Z " fill="rgb(248,248,248)"/><path d=" M 254.977 311.021 C 253.204 309.643 251.188 308.514 248.961 307.708 L 248.961 307.708 C 248.934 307.698 248.907 307.688 248.881 307.679 C 248.876 307.677 248.87 307.675 248.865 307.673 C 248.841 307.664 248.816 307.656 248.792 307.647 C 248.699 307.614 248.607 307.582 248.515 307.551 C 250.419 305.629 252.437 303.817 254.556 302.13 C 255.459 302.578 256.33 303.069 257.168 303.599 C 255.714 304.716 254.309 305.893 252.955 307.126 C 252.955 307.126 254.905 306.884 258.272 306.785 L 254.977 311.021 Z " fill="rgb(42,99,144)"/><path d=" M 322.534 357.719 C 320.734 357.719 318.906 357.552 317.072 357.207 C 304.742 354.884 295.677 345.159 293.613 333.494 L 300.842 332.216 C 300.623 330.978 300.508 329.711 300.507 328.427 C 300.508 329.711 300.623 330.978 300.842 332.216 C 302.391 340.961 309.186 348.252 318.431 349.993 C 319.806 350.252 321.175 350.377 322.525 350.377 C 328.534 350.377 334.162 347.903 338.218 343.766 C 339.62 345.754 340.974 347.852 342.267 350.056 C 336.973 354.877 329.974 357.72 322.534 357.719 Z  M 347.889 313.694 C 344.516 309.648 340.667 306.013 336.428 302.875 L 336.56 302.633 C 336.043 302.35 335.515 302.083 334.977 301.831 L 334.977 301.831 C 335.515 302.083 336.043 302.35 336.56 302.633 C 341.332 305.237 345.226 309.097 347.889 313.694 Z " fill="rgb(248,248,248)"/><path d=" M 336.428 302.875 C 335.949 302.52 335.466 302.172 334.977 301.831 C 335.515 302.083 336.043 302.35 336.56 302.633 L 336.428 302.875 Z " fill="rgb(86,99,197)"/><path d=" M 300.667 325.77 L 300.667 325.77 L 293.377 324.897 C 293.456 324.252 293.556 323.602 293.678 322.954 C 294.363 319.319 295.691 315.968 297.522 312.996 C 299.815 313.829 302.124 314.768 304.441 315.828 C 302.722 318.298 301.485 321.163 300.892 324.312 C 300.8 324.799 300.726 325.284 300.667 325.77 Z " fill="rgb(118,100,220)"/><path d=" M 293.613 333.494 C 293.32 331.843 293.167 330.154 293.166 328.441 C 293.165 327.269 293.234 326.086 293.377 324.897 L 300.667 325.77 C 300.559 326.661 300.507 327.548 300.507 328.427 C 300.508 329.711 300.623 330.978 300.842 332.216 L 293.613 333.494 Z " fill="rgb(180,140,247)"/><path d=" M 270.809 376.182 L 231.714 376.182 C 231.254 374.695 230.841 373.184 230.481 371.656 L 270.809 371.656 L 270.809 376.182 Z " fill="rgb(195,195,195)"/><path d=" M 256.043 385.799 L 235.516 385.799 C 234.797 384.319 234.13 382.81 233.517 381.273 L 256.043 381.273 L 256.043 385.799 Z " fill="rgb(195,195,195)"/><path d=" M 325.518 376.182 L 293.164 376.182 L 293.164 371.656 L 325.518 371.656 L 325.518 376.182 Z " fill="rgb(195,195,195)"/><path d=" M 341.19 385.799 L 293.164 385.799 L 293.164 381.273 L 341.19 381.273 L 341.19 385.799 Z " fill="rgb(195,195,195)"/><path d=" M 342.719 407.27 L 309.349 407.27 L 309.349 402.892 L 247.317 402.892 L 247.317 402.892 L 347.237 402.892 C 345.799 404.418 344.29 405.88 342.719 407.27 Z " fill="rgb(248,248,248)"/><path d=" M 327.47 417.487 L 317.177 417.487 L 317.177 413.108 L 259.445 413.108 L 259.445 413.108 L 335.108 413.108 C 332.666 414.725 330.118 416.188 327.47 417.487 Z " fill="rgb(248,248,248)"/><path d=" M 297.277 424.469 C 292.993 424.469 288.801 424.076 284.734 423.325 L 309.82 423.325 C 305.753 424.076 301.561 424.469 297.277 424.469 Z " fill="rgb(248,248,248)"/><path d=" M 309.349 407.27 L 251.835 407.27 C 250.264 405.88 248.755 404.418 247.317 402.892 L 309.349 402.892 L 309.349 407.27 Z " fill="rgb(248,165,83)"/><path d=" M 317.177 417.487 L 267.084 417.487 C 264.436 416.188 261.888 414.725 259.445 413.108 L 317.177 413.108 L 317.177 417.487 Z " fill="rgb(248,165,83)"/><linearGradient id="_lgradient_14" x1="0" y1="0" x2="1" y2="0" gradientTransform="matrix(-216.914,-414.42,414.42,-216.914,491.386,523.926)" gradientUnits="userSpaceOnUse"><stop offset="0%" stop-opacity="1" style="stop-color:rgb(187,203,232)"/><stop offset="100%" stop-opacity="1" style="stop-color:rgb(202,220,231)"/></linearGradient><path d=" M 355.456 386.737 C 352.668 371.971 348.048 359.909 342.267 350.056 C 346.812 345.917 350.099 340.319 351.325 333.812 C 352.678 326.627 351.286 319.561 347.889 313.694 C 357.409 325.115 363.138 339.81 363.138 355.841 C 363.138 367.007 360.36 377.522 355.457 386.736 L 355.456 386.737 Z  M 338.218 343.766 C 328.535 330.031 316.446 321.32 304.441 315.828 C 305.389 314.466 306.483 313.225 307.697 312.122 L 307.697 312.122 L 307.697 312.122 L 307.697 312.122 C 307.708 312.112 307.718 312.102 307.729 312.092 C 307.742 312.08 307.756 312.068 307.769 312.057 C 311.724 308.492 316.933 306.392 322.465 306.389 C 322.469 306.389 322.472 306.389 322.476 306.389 C 322.477 306.389 322.477 306.389 322.478 306.389 C 323.795 306.389 325.131 306.508 326.472 306.754 C 326.494 306.758 326.517 306.763 326.539 306.767 C 326.539 306.767 326.539 306.767 326.539 306.767 C 326.55 306.769 326.561 306.771 326.572 306.773 L 326.572 306.773 C 328.899 307.211 331.07 308.001 333.042 309.076 L 333.042 309.076 C 341.184 313.519 345.921 322.845 344.112 332.453 C 343.276 336.891 341.159 340.766 338.218 343.766 Z  M 297.522 312.996 C 283.138 307.769 269.58 306.751 261.281 306.743 C 260.705 306.215 260.106 305.709 259.485 305.226 C 258.744 304.65 257.971 304.106 257.168 303.599 C 268.274 295.058 282.183 289.98 297.277 289.98 C 311.299 289.98 324.297 294.361 334.977 301.831 C 332.783 300.801 330.424 300.029 327.931 299.56 L 327.931 299.56 C 327.909 299.555 327.887 299.551 327.865 299.547 C 327.853 299.545 327.84 299.543 327.827 299.54 C 326.028 299.208 324.238 299.048 322.471 299.048 C 322.471 299.048 322.47 299.048 322.469 299.048 L 322.469 299.048 L 322.469 299.048 C 322.467 299.048 322.464 299.048 322.462 299.048 C 315.146 299.049 308.256 301.8 302.996 306.476 C 302.954 306.514 302.912 306.552 302.869 306.59 C 302.831 306.624 302.793 306.659 302.755 306.693 C 300.741 308.524 298.973 310.641 297.522 312.996 Z " fill-rule="evenodd" fill="url(#_lgradient_14)"/><path d=" M 258.272 306.785 L 259.485 305.226 C 258.744 304.65 257.971 304.106 257.168 303.599 L 257.168 303.599 C 257.971 304.106 258.744 304.65 259.485 305.226 C 260.106 305.709 260.705 306.215 261.281 306.743 C 261.244 306.743 261.208 306.743 261.172 306.743 C 260.116 306.743 259.146 306.759 258.272 306.785 Z " fill="rgb(214,220,232)"/><path d=" M 252.955 307.126 C 254.309 305.893 255.714 304.716 257.168 303.599 C 257.971 304.106 258.744 304.65 259.485 305.226 L 258.272 306.785 C 254.905 306.884 252.955 307.126 252.955 307.126 Z " fill="rgb(70,116,159)"/><path d=" M 342.267 350.056 C 340.974 347.852 339.62 345.754 338.218 343.766 C 341.159 340.766 343.276 336.891 344.112 332.453 C 345.921 322.845 341.184 313.519 333.042 309.076 L 336.428 302.875 C 340.667 306.013 344.516 309.648 347.889 313.694 C 351.286 319.561 352.678 326.627 351.325 333.812 C 350.099 340.319 346.812 345.917 342.267 350.056 Z  M 297.522 312.996 L 297.522 312.996 C 298.973 310.641 300.741 308.524 302.755 306.693 C 302.793 306.659 302.831 306.624 302.869 306.59 C 302.831 306.624 302.793 306.659 302.755 306.693 L 307.697 312.122 L 307.697 312.122 L 302.755 306.693 C 300.741 308.524 298.973 310.641 297.522 312.996 Z  M 307.697 312.122 C 307.708 312.112 307.718 312.102 307.729 312.092 C 307.718 312.102 307.708 312.112 307.697 312.122 Z  M 307.769 312.057 C 311.724 308.492 316.933 306.391 322.465 306.389 C 316.933 306.392 311.724 308.492 307.769 312.057 Z  M 326.572 306.773 C 326.561 306.771 326.55 306.769 326.539 306.767 C 326.55 306.769 326.561 306.771 326.572 306.773 Z  M 326.539 306.767 C 326.517 306.763 326.494 306.758 326.472 306.754 C 326.494 306.758 326.517 306.763 326.539 306.767 Z  M 302.996 306.476 C 308.256 301.8 315.146 299.049 322.462 299.048 C 315.147 299.05 308.255 301.8 302.996 306.476 Z  M 322.478 306.389 C 322.477 306.389 322.477 306.389 322.476 306.389 L 322.476 306.389 C 322.477 306.389 322.477 306.389 322.478 306.389 Z  M 327.865 299.547 C 327.853 299.545 327.84 299.543 327.827 299.54 C 327.84 299.543 327.853 299.545 327.865 299.547 Z  M 322.471 299.048 C 322.471 299.048 322.47 299.048 322.469 299.048 L 322.469 299.048 C 322.47 299.048 322.471 299.048 322.471 299.048 Z " fill="rgb(214,220,232)"/><path d=" M 307.697 312.122 L 307.697 312.122 L 302.755 306.693 C 302.793 306.659 302.831 306.624 302.869 306.59 C 302.912 306.552 302.954 306.514 302.996 306.476 C 308.255 301.8 315.147 299.05 322.462 299.048 C 322.464 299.048 322.467 299.048 322.469 299.048 L 322.469 299.048 C 322.47 299.048 322.471 299.048 322.471 299.048 C 324.238 299.048 326.028 299.208 327.827 299.54 C 327.84 299.543 327.853 299.545 327.865 299.547 C 327.887 299.551 327.909 299.555 327.931 299.56 L 327.931 299.56 C 330.424 300.029 332.783 300.801 334.977 301.831 C 335.466 302.172 335.949 302.52 336.428 302.875 L 333.042 309.076 C 331.07 308.001 328.899 307.211 326.572 306.773 L 326.572 306.773 C 326.561 306.771 326.55 306.769 326.539 306.767 C 326.539 306.767 326.539 306.767 326.539 306.767 C 326.517 306.763 326.494 306.758 326.472 306.754 C 325.131 306.508 323.795 306.389 322.478 306.389 C 322.477 306.389 322.477 306.389 322.476 306.389 L 322.476 306.389 C 322.472 306.389 322.469 306.389 322.465 306.389 C 316.933 306.391 311.724 308.492 307.769 312.057 C 307.756 312.068 307.742 312.08 307.729 312.092 C 307.718 312.102 307.708 312.112 307.697 312.122 L 307.697 312.122 Z " fill="rgb(100,116,196)"/><path d=" M 304.441 315.828 C 302.124 314.768 299.815 313.829 297.522 312.996 C 298.973 310.641 300.741 308.524 302.755 306.693 L 307.697 312.122 C 306.483 313.225 305.389 314.466 304.441 315.828 Z " fill="rgb(123,116,212)"/><path d=" M 297.28 421.81 C 260.848 421.81 231.313 392.277 231.313 355.841 C 231.313 319.409 260.848 289.875 297.28 289.875 C 333.714 289.875 363.248 319.409 363.248 355.841 C 363.248 392.277 333.714 421.81 297.28 421.81 Z  M 297.28 277.046 C 253.762 277.046 218.482 312.325 218.482 355.841 C 218.482 399.362 253.762 434.642 297.28 434.642 C 340.8 434.642 376.078 399.362 376.078 355.841 C 376.078 312.325 340.8 277.046 297.28 277.046 Z " fill="rgb(63,68,79)"/><path d=" M 593.502 492.841 C 593.502 492.841 594.142 497.158 594.222 497.807 C 594.302 498.456 601.34 497.425 601.34 497.425 L 601.91 492.284 C 601.91 492.284 594.382 492.231 593.502 492.841 Z " fill="rgb(92,84,77)"/><path d=" M 594.148 497.258 C 594.148 497.258 591.917 499.86 589.761 500.994 C 587.605 502.128 584.215 502.578 582.94 503.752 C 582.02 504.599 579.587 508.248 588.544 508.174 C 597.501 508.1 601.82 508.689 602.78 507.29 C 603.739 505.892 601.391 496.966 601.391 496.966 C 601.391 496.966 599.27 497.708 594.148 497.258 Z " fill="rgb(28,30,38)"/><path d=" M 543.078 492.841 C 543.078 492.841 543.717 497.158 543.797 497.807 C 543.877 498.456 550.915 497.425 550.915 497.425 L 551.485 492.284 C 551.485 492.284 543.958 492.231 543.078 492.841 Z " fill="rgb(92,84,77)"/><path d=" M 543.722 497.258 C 543.722 497.258 541.493 499.86 539.336 500.994 C 537.179 502.128 529.244 503.061 527.968 504.233 C 527.047 505.082 525.517 508.493 538.12 508.174 C 547.074 507.947 551.395 508.689 552.354 507.29 C 553.314 505.892 550.966 496.966 550.966 496.966 C 550.966 496.966 548.967 497.758 543.722 497.258 Z " fill="rgb(28,30,38)"/><path d=" M 591.002 381.357 C 591.002 381.357 594.749 392.073 594.255 401.307 C 593.762 410.541 596.192 420.646 597.185 430.293 C 598.292 441.047 602.825 466.506 602.989 472.259 C 603.154 478.012 602.286 496.38 602.286 496.38 L 593.213 496.582 C 593.213 496.582 585.594 452.073 583.621 447.532 C 581.648 442.99 571.862 410.613 571.533 406.979 C 571.205 403.347 591.002 381.357 591.002 381.357 Z " fill="rgb(32,40,77)"/><path d=" M 552.865 383.265 C 552.865 383.265 547.881 408.574 547.224 414.226 C 546.566 419.878 546.127 441.577 545.798 445.109 C 545.469 448.642 543.606 491.333 541.852 496.582 L 553.45 496.582 C 553.45 496.582 562.353 465.546 562.353 450.862 C 562.353 436.178 569.231 418.939 573.67 409.25 C 578.111 399.562 588.274 399.333 591.002 381.357 C 591.002 381.357 556.56 377.563 552.865 383.265 Z " fill="rgb(32,40,77)"/><path d=" M 576.435 296.767 C 576.435 296.767 567.293 293.478 563.078 300.181 C 558.862 306.883 559.268 320.302 563.876 321.952 C 568.485 323.603 575.408 322.739 577.767 318.545 C 580.125 314.351 582.256 308.288 582.154 304.236 C 582.051 300.184 578.835 297.937 576.435 296.767 Z " fill="rgb(238,168,134)"/><path d=" M 565.412 321.54 C 565.412 321.54 565.781 323.849 565.17 324.985 C 564.56 326.122 576.669 326.151 576.669 326.151 C 576.669 326.151 577.653 319.967 579.516 314.742 C 581.379 309.517 565.412 321.54 565.412 321.54 Z " fill="rgb(238,168,134)"/><path d=" M 579.516 314.742 C 579.516 314.742 578.68 316.07 575.269 315.555 C 571.857 315.04 567.695 310.668 566.271 310.188 C 564.846 309.708 564.833 308.902 564.833 308.902 L 563.941 310.157 L 562.428 310.249 C 562.428 310.249 563.808 306.339 561.726 304.744 C 559.644 303.149 563.886 292.086 574.828 295.77 C 574.828 295.77 583.231 298 582.925 302.604 C 582.621 307.207 581.396 312.45 579.516 314.742 Z " fill="rgb(252,204,162)"/><path d=" M 564.452 324.849 C 564.452 324.849 564.49 322.676 565.512 322.468 C 566.535 322.259 576.796 321.31 578.051 321.784 L 578.051 324.314 C 578.051 324.314 575.634 325.748 564.452 324.849 Z " fill="rgb(226,210,202)"/><path d=" M 565.059 307.229 C 565.25 306.456 567.289 304.25 568.069 306.612 C 568.849 308.975 566.89 312.152 565.796 311.88 C 564.704 311.608 564.574 309.186 565.059 307.229 Z " fill="rgb(238,168,134)"/><path d=" M 564.452 324.849 C 564.452 324.849 558.826 326.796 552.31 329.464 C 552.31 329.464 544.814 332.159 544.001 340.132 C 543.571 344.364 538.892 366.825 538.015 368.726 C 537.138 370.626 526.763 401.157 526.397 401.791 C 526.032 402.424 534.865 405.956 535.45 405.674 C 536.034 405.392 545.495 377.827 546.445 375.786 C 546.445 375.786 551.891 359.258 552.037 356.794 C 552.037 356.794 552.194 363.816 552.486 365.787 C 552.779 367.758 547.643 406.03 547.789 407.086 C 547.935 408.142 571.127 409.483 580.41 408.498 C 589.692 407.512 597.182 405.456 597.182 405.456 C 597.182 405.456 589.878 375.252 590.102 371.903 C 590.591 364.607 593.123 350.864 593.123 350.864 L 600.691 364.607 L 591.002 388.611 L 593.222 395.907 C 593.222 395.907 611.224 369.707 611.809 367.313 C 612.393 364.92 610.926 361.872 609.976 359.9 C 609.026 357.93 602.786 342.928 601.324 340.816 C 599.862 338.704 597.392 330.248 591.421 327.895 C 586.429 325.927 578.051 324.314 578.051 324.314 L 564.452 324.849 Z " fill="rgb(49,61,117)"/><path d=" M 552.073 415.628 L 509.664 405.153 L 517.25 376.658 L 559.66 387.132 L 552.073 415.628 Z " fill="rgb(196,196,196)"/><path d=" M 522.705 408.022 C 522.705 408.022 521.493 409.908 521.05 410.446 C 520.608 410.983 522.138 411.322 522.793 410.777 C 523.45 410.232 522.705 408.022 522.705 408.022 Z " fill="rgb(201,132,98)"/><path d=" M 531.536 414.465 C 531.536 414.465 532.252 413.745 532.406 413.283 C 532.406 413.283 532.619 412.424 532.809 411.82 C 532.87 411.629 532.927 411.465 532.976 411.361 C 533.179 410.932 533.759 410.045 533.946 408.88 C 534.133 407.716 534.662 402.49 534.662 402.49 L 531.376 401.693 L 528.737 401.156 C 528.737 401.156 523.036 406.634 522.731 407.699 C 522.702 407.804 522.677 407.907 522.662 408.007 C 522.495 408.934 522.774 409.69 522.744 410.187 C 522.734 410.368 522.761 412.186 523.201 412.524 C 523.811 412.998 524.432 413.087 524.943 412.929 C 524.943 412.929 526.178 413.804 527.209 413.751 C 527.209 413.751 528.323 414.594 529.586 414.176 C 529.586 414.176 530.815 414.908 531.536 414.465 Z " fill="rgb(222,157,125)"/><path d=" M 544.359 381.415 C 544.359 381.415 536.832 403.369 535.45 405.674 C 535.45 405.674 529.929 404.557 526.397 401.791 L 534.662 378.096 L 544.359 381.415 Z " fill="rgb(49,61,117)"/></g></svg>