<?xml version="1.0" encoding="UTF-8" standalone="no"?><svg xmlns="http://www.w3.org/2000/svg" xmlns:xlink="http://www.w3.org/1999/xlink" style="isolation:isolate" viewBox="816.279 524 368.044 275" width="100%" height="100%"><defs><clipPath id="_clipPath_ebQukU86OZzbhv7fi9Eu2G8neIaH2V2F"><rect x="816.279" y="524" width="368.044" height="275"/></clipPath></defs><g clip-path="url(#_clipPath_ebQukU86OZzbhv7fi9Eu2G8neIaH2V2F)"><g style="isolation:isolate"><path d=" M 842.553 615.805 L 856.535 648.632 L 849.848 733.131 L 1150.76 733.131 L 1141.033 648.632 L 1157.447 616.413 L 1138.602 615.805 L 1142.857 593.921 L 855.319 595.745 L 862.006 615.198 L 842.553 615.805 Z " fill="rgb(214,224,225)"/><ellipse vector-effect="non-scaling-stroke" cx="997.2500000000002" cy="792.5312499999995" rx="86.81250000000006" ry="6.468749999999886" fill="rgb(230,240,247)"/><ellipse vector-effect="non-scaling-stroke" cx="856.534954407295" cy="649.5440729483284" rx="14.589665653495445" ry="14.893617021276668" fill="rgb(255,255,255)" stroke-width="4" stroke="rgb(136,136,136)" stroke-linejoin="miter" stroke-linecap="square" stroke-miterlimit="3"/><path d="M 916.46 529 L 1082.54 529 C 1084.45 529 1086 530.55 1086 532.46 L 1086 763.54 C 1086 765.45 1084.45 767 1082.54 767 L 916.46 767 C 914.55 767 913 765.45 913 763.54 L 913 532.46 C 913 530.55 914.55 529 916.46 529 Z" style="stroke:none;fill:#FFFFFF;stroke-miterlimit:10;"/><path d="M 916.46 529 L 1082.54 529 C 1084.45 529 1086 530.55 1086 532.46 L 1086 763.54 C 1086 765.45 1084.45 767 1082.54 767 L 916.46 767 C 914.55 767 913 765.45 913 763.54 L 913 532.46 C 913 530.55 914.55 529 916.46 529 Z" style="fill:none;stroke:#ACACAC;stroke-width:10;stroke-linecap:square;stroke-miterlimit:2;"/><rect x="912" y="528" width="173" height="27" transform="matrix(1,0,0,1,0,0)" fill="rgb(172,172,172)"/><ellipse vector-effect="non-scaling-stroke" cx="923.0624999999998" cy="542.3437499999999" rx="4.40625" ry="4.59375" fill="rgb(136,136,136)"/><ellipse vector-effect="non-scaling-stroke" cx="936.6562499999993" cy="542.3437499999994" rx="4.40625" ry="4.59375" fill="rgb(255,255,255)"/><ellipse vector-effect="non-scaling-stroke" cx="950.7499999999997" cy="542.5937499999999" rx="4.40625" ry="4.59375" fill="rgb(255,255,255)"/><ellipse vector-effect="non-scaling-stroke" cx="976.1249999999999" cy="605.1562499999999" rx="4.40625" ry="4.59375" fill="rgb(136,136,136)"/><ellipse vector-effect="non-scaling-stroke" cx="1024.3125" cy="604.9687499999999" rx="4.40625" ry="4.59375" fill="rgb(136,136,136)"/><path d="M 990.09 623.063 L 1010.535 623.063 C 1012.344 623.063 1013.813 624.531 1013.813 626.34 L 1013.813 626.91 C 1013.813 628.719 1012.344 630.188 1010.535 630.188 L 990.09 630.188 C 988.281 630.188 986.813 628.719 986.813 626.91 L 986.813 626.34 C 986.813 624.531 988.281 623.063 990.09 623.063 Z" style="stroke:none;fill:#888888;stroke-linecap:square;stroke-miterlimit:2;"/><ellipse vector-effect="non-scaling-stroke" cx="1140.4255319148942" cy="650.1519756838907" rx="14.589665653495558" ry="14.893617021276668" fill="rgb(255,255,255)" stroke-width="4" stroke="rgb(136,136,136)" stroke-linejoin="miter" stroke-linecap="square" stroke-miterlimit="3"/><path d="M 831.55 573.528 L 841.514 585.401 C 842.223 586.247 842.113 587.509 841.267 588.219 L 841.267 588.219 C 840.422 588.928 839.159 588.818 838.45 587.972 L 828.486 576.099 C 827.777 575.253 827.887 573.991 828.733 573.281 L 828.733 573.281 C 829.578 572.572 830.841 572.682 831.55 573.528 Z" style="stroke:none;fill:#B3B3B3;stroke-linecap:square;stroke-miterlimit:2;"/><path d="M 852.567 564.23 L 853.918 579.671 C 854.014 580.771 853.199 581.742 852.1 581.838 L 852.1 581.838 C 851 581.934 850.029 581.119 849.933 580.02 L 848.582 564.579 C 848.486 563.479 849.301 562.508 850.4 562.412 L 850.4 562.412 C 851.5 562.316 852.471 563.131 852.567 564.23 Z" style="stroke:none;fill:#BFBFBF;stroke-linecap:square;stroke-miterlimit:2;"/><path d="M 833.895 601.942 L 818.454 603.293 C 817.354 603.389 816.383 602.574 816.287 601.475 L 816.287 601.475 C 816.191 600.375 817.006 599.404 818.105 599.308 L 833.546 597.957 C 834.646 597.861 835.617 598.676 835.713 599.775 L 835.713 599.775 C 835.809 600.875 834.994 601.846 833.895 601.942 Z" style="stroke:none;fill:#ACACAC;stroke-linecap:square;stroke-miterlimit:2;"/><path d="M 1169.052 574.05 L 1159.089 585.924 C 1158.379 586.769 1158.49 588.032 1159.335 588.741 L 1159.335 588.741 C 1160.181 589.451 1161.443 589.341 1162.153 588.495 L 1172.116 576.621 C 1172.826 575.776 1172.715 574.513 1171.87 573.804 L 1171.87 573.804 C 1171.024 573.094 1169.762 573.205 1169.052 574.05 Z" style="stroke:none;fill:#BFBFBF;stroke-linecap:square;stroke-miterlimit:2;"/><path d="M 1148.036 564.753 L 1146.685 580.194 C 1146.588 581.293 1147.403 582.264 1148.503 582.36 L 1148.503 582.36 C 1149.602 582.457 1150.573 581.642 1150.669 580.542 L 1152.02 565.101 C 1152.117 564.002 1151.302 563.031 1150.202 562.935 L 1150.202 562.935 C 1149.103 562.838 1148.132 563.653 1148.036 564.753 Z" style="stroke:none;fill:#BFBFBF;stroke-linecap:square;stroke-miterlimit:2;"/><path d="M 1166.708 602.464 L 1182.149 603.815 C 1183.248 603.912 1184.219 603.097 1184.315 601.997 L 1184.315 601.997 C 1184.412 600.898 1183.597 599.927 1182.497 599.831 L 1167.056 598.48 C 1165.957 598.383 1164.986 599.198 1164.89 600.298 L 1164.89 600.298 C 1164.793 601.397 1165.608 602.368 1166.708 602.464 Z" style="stroke:none;fill:#BFBFBF;stroke-linecap:square;stroke-miterlimit:2;"/><ellipse vector-effect="non-scaling-stroke" cx="1127.0448328267476" cy="754.8843085106381" rx="6.794832826747779" ry="6.884308510638334" fill="rgb(255,255,255)" stroke-width="2" stroke="rgb(179,179,179)" stroke-linejoin="miter" stroke-linecap="square" stroke-miterlimit="3"/><ellipse vector-effect="non-scaling-stroke" cx="835.9999999999999" cy="748.875" rx="6.794832826747665" ry="6.884308510638334" fill="rgb(255,255,255)" stroke-width="2" stroke="rgb(172,172,172)" stroke-linejoin="miter" stroke-linecap="square" stroke-miterlimit="3"/><ellipse vector-effect="non-scaling-stroke" cx="856.1474164133738" cy="786.2453457446808" rx="3.647416413373776" ry="3.7546542553191102" fill="rgb(255,255,255)" stroke-width="2" stroke="rgb(179,179,179)" stroke-linejoin="miter" stroke-linecap="square" stroke-miterlimit="3"/><path d="M 875.697 765.578 L 883.828 757.447 C 884.511 756.764 885.62 756.764 886.303 757.447 L 886.303 757.447 C 886.986 758.13 886.986 759.239 886.303 759.922 L 878.172 768.053 C 877.489 768.736 876.38 768.736 875.697 768.053 L 875.697 768.053 C 875.014 767.37 875.014 766.261 875.697 765.578 Z" style="stroke:none;fill:#B3B3B3;stroke-linecap:square;stroke-miterlimit:2;"/><path d="M 877.922 757.572 L 886.053 765.703 C 886.736 766.386 886.736 767.495 886.053 768.178 L 886.053 768.178 C 885.37 768.861 884.261 768.861 883.578 768.178 L 875.447 760.047 C 874.764 759.364 874.764 758.255 875.447 757.572 L 875.447 757.572 C 876.13 756.889 877.239 756.889 877.922 757.572 Z" style="stroke:none;fill:#B3B3B3;stroke-linecap:square;stroke-miterlimit:2;"/><path d="M 1166.072 752.891 L 1174.203 744.759 C 1174.886 744.076 1175.995 744.076 1176.678 744.759 L 1176.678 744.759 C 1177.361 745.442 1177.361 746.551 1176.678 747.234 L 1168.547 755.366 C 1167.864 756.049 1166.755 756.049 1166.072 755.366 L 1166.072 755.366 C 1165.389 754.683 1165.389 753.574 1166.072 752.891 Z" style="stroke:none;fill:#B3B3B3;stroke-linecap:square;stroke-miterlimit:2;"/><path d="M 1168.297 744.884 L 1176.428 753.016 C 1177.111 753.699 1177.111 754.808 1176.428 755.491 L 1176.428 755.491 C 1175.745 756.174 1174.636 756.174 1173.953 755.491 L 1165.822 747.359 C 1165.139 746.676 1165.139 745.567 1165.822 744.884 L 1165.822 744.884 C 1166.505 744.201 1167.614 744.201 1168.297 744.884 Z" style="stroke:none;fill:#B3B3B3;stroke-linecap:square;stroke-miterlimit:2;"/><path d="M 1127.627 787.231 L 1134.115 783.197 C 1134.66 782.858 1135.354 783.039 1135.665 783.599 L 1135.665 783.601 C 1135.976 784.162 1135.786 784.892 1135.242 785.23 L 1128.753 789.265 C 1128.209 789.603 1127.515 789.423 1127.204 788.862 L 1127.203 788.861 C 1126.893 788.3 1127.082 787.57 1127.627 787.231 Z" style="stroke:none;fill:#B3B3B3;stroke-linecap:square;stroke-miterlimit:2;"/><path d="M 1130.392 782.317 L 1134.095 789 C 1134.405 789.561 1134.216 790.291 1133.671 790.63 L 1133.67 790.63 C 1133.125 790.969 1132.431 790.789 1132.12 790.228 L 1128.418 783.545 C 1128.107 782.984 1128.297 782.254 1128.841 781.915 L 1128.843 781.914 C 1129.387 781.576 1130.081 781.756 1130.392 782.317 Z" style="stroke:none;fill:#B3B3B3;stroke-linecap:square;stroke-miterlimit:2;"/></g></g></svg>