<?xml version="1.0" encoding="UTF-8" standalone="no"?><!-- Generator: Gravit.io --><svg xmlns="http://www.w3.org/2000/svg" xmlns:xlink="http://www.w3.org/1999/xlink" style="isolation:isolate" viewBox="838.125 516.207 195.75 146.585" width="100%" height="100%"><defs><clipPath id="_clipPath_3BbVZRFuNycANHa3rUCQWh89hxW8hLUg"><rect x="838.125" y="516.207" width="195.75" height="146.585"/></clipPath></defs><g clip-path="url(#_clipPath_3BbVZRFuNycANHa3rUCQWh89hxW8hLUg)"><path d=" M 1002.772 639.621 C 1010.551 634.825 1013.003 624.575 1008.248 616.729 C 1007.187 614.977 1005.846 613.51 1004.334 612.315 C 1006.302 609.504 1008.56 606.787 1011.122 604.205 C 1012.31 603.008 1013.515 601.879 1014.734 600.798 C 1015.223 601.213 1015.7 601.642 1016.165 602.089 L 1020.22 599.589 C 1022.294 598.309 1025.004 598.969 1026.272 601.062 L 1030.289 607.693 C 1031.556 609.785 1030.902 612.518 1028.828 613.797 L 1024.773 616.297 C 1025.685 619.404 1026.108 622.59 1026.072 625.749 L 1030.655 627.039 C 1032.997 627.699 1034.365 630.148 1033.712 632.51 L 1031.641 639.996 C 1030.988 642.359 1028.56 643.738 1026.218 643.08 L 1021.64 641.791 C 1020.425 643.87 1018.969 645.823 1017.283 647.608 L 1019.762 651.698 C 1021.03 653.79 1020.375 656.524 1018.302 657.803 L 1011.729 661.856 C 1009.654 663.134 1006.944 662.474 1005.676 660.382 L 1003.199 656.292 C 1000.825 657 998.406 657.41 995.987 657.546 C 994.605 652.552 993.99 647.328 994.176 642.047 C 997.111 642.048 1000.084 641.278 1002.772 639.621 Z " fill="rgb(213,213,213)"/><path d=" M 991.284 658.94 L 849.591 658.94 C 845.747 658.94 842.629 655.797 842.629 651.917 L 842.629 554.422 C 842.629 550.543 845.747 547.398 849.591 547.398 L 991.284 547.398 C 995.129 547.398 998.246 550.543 998.246 554.422 L 998.246 651.917 C 998.246 655.797 995.129 658.94 991.284 658.94 Z " fill="rgb(227,232,245)"/><path d=" M 990.304 657.093 L 849.818 657.093 C 846.771 657.093 844.3 654.6 844.3 651.527 L 844.3 554.052 C 844.3 550.978 846.771 548.486 849.818 548.486 L 990.304 548.486 C 993.351 548.486 995.821 550.978 995.821 554.052 L 995.821 651.527 C 995.821 654.6 993.351 657.093 990.304 657.093 Z " fill="rgb(0,113,101)"/><path d=" M 986.246 647.889 L 854.629 647.889 C 852.751 647.889 851.229 646.354 851.229 644.46 L 851.229 557.407 C 851.229 555.512 852.751 553.977 854.629 553.977 L 986.246 553.977 C 988.125 553.977 989.646 555.512 989.646 557.407 L 989.646 644.46 C 989.646 646.354 988.125 647.889 986.246 647.889 Z " fill="rgb(0,150,136)"/><path d=" M 838.851 653.157 C 838.402 653.99 838.125 654.931 838.125 655.946 C 838.125 659.197 840.738 661.832 843.96 661.832 L 996.916 661.832 C 1000.138 661.832 1002.75 659.197 1002.75 655.946 C 1002.75 654.931 1002.473 653.99 1002.024 653.157 L 838.851 653.157 Z " fill="rgb(227,232,245)"/><path d=" M 838.851 658.734 C 839.839 660.571 841.744 661.832 843.96 661.832 L 996.916 661.832 C 999.132 661.832 1001.037 660.571 1002.024 658.734 L 838.851 658.734 Z " fill="rgb(203,214,237)"/><path d=" M 996.339 620.349 L 989.787 620.349 L 989.787 617.196 L 996.339 617.196 L 996.339 620.349 Z  M 891.405 554.12 L 887.584 554.12 L 887.584 549.009 L 891.405 549.009 L 891.405 554.12 Z " fill="rgb(0,113,101)"/><path d=" M 1008.44 617.053 L 998.246 617.053 L 998.246 554.422 L 998.246 554.422 C 998.246 550.543 995.129 547.398 991.284 547.398 L 891.263 547.398 L 891.263 542.075 C 891.263 540.527 892.507 539.272 894.043 539.272 L 1010.044 539.272 C 1011.578 539.272 1012.823 540.527 1012.823 542.075 L 1012.823 602.547 C 1012.252 603.086 1011.686 603.638 1011.122 604.205 C 1008.56 606.787 1006.302 609.504 1004.334 612.315 C 1005.846 613.51 1007.187 614.977 1008.248 616.729 C 1008.313 616.837 1008.377 616.945 1008.44 617.053 Z " fill="rgb(195,203,221)"/><path d=" M 1010.044 617.053 L 1008.44 617.053 C 1008.377 616.945 1008.313 616.837 1008.248 616.729 C 1007.187 614.977 1005.846 613.51 1004.334 612.315 C 1006.302 609.504 1008.56 606.787 1011.122 604.205 C 1011.686 603.638 1012.252 603.086 1012.823 602.547 L 1012.823 614.251 C 1012.823 615.799 1011.578 617.053 1010.044 617.053 Z " fill="rgb(124,167,216)"/><path d=" M 998.246 617.053 L 996.198 617.053 L 996.198 554.433 C 996.198 551.358 993.728 548.866 990.681 548.866 L 891.263 548.866 L 891.263 547.398 L 991.284 547.398 C 995.129 547.398 998.246 550.543 998.246 554.422 L 998.246 617.053 Z " fill="rgb(195,203,221)"/><path d=" M 996.198 617.053 L 989.646 617.053 L 989.646 557.407 C 989.646 555.512 988.125 553.977 986.246 553.977 L 891.263 553.977 L 891.263 548.866 L 990.681 548.866 C 993.728 548.866 996.198 551.358 996.198 554.433 L 996.198 617.053 Z " fill="rgb(195,203,221)"/><path d=" M 989.646 617.434 L 894.043 617.434 C 892.507 617.434 891.263 616.18 891.263 614.631 L 891.263 554.358 L 986.246 554.358 C 988.125 554.358 989.646 555.892 989.646 557.787 L 989.646 617.434 Z " fill="rgb(0,195,176)"/><path d=" M 1014.906 611.798 L 898.904 611.798 C 897.37 611.798 896.126 610.543 896.126 608.995 L 896.126 536.82 C 896.126 535.271 897.37 534.017 898.904 534.017 L 1014.906 534.017 C 1016.441 534.017 1017.685 535.271 1017.685 536.82 L 1017.685 608.995 C 1017.685 610.543 1016.441 611.798 1014.906 611.798 Z " fill="rgb(227,232,245)"/><path d=" M 873.681 587.097 L 861.351 587.097 C 860.392 587.097 859.615 586.313 859.615 585.346 L 859.615 572.207 C 859.615 571.238 860.392 570.455 861.351 570.455 L 873.681 570.455 C 874.64 570.455 875.417 571.238 875.417 572.207 L 875.417 585.346 C 875.417 586.313 874.64 587.097 873.681 587.097 Z " fill="rgb(78,105,176)"/><path d=" M 872.77 611.273 L 860.44 611.273 C 859.48 611.273 858.703 610.487 858.703 609.52 L 858.703 596.381 C 858.703 595.414 859.48 594.631 860.44 594.631 L 872.77 594.631 C 873.729 594.631 874.505 595.414 874.505 596.381 L 874.505 609.52 C 874.505 610.487 873.729 611.273 872.77 611.273 Z " fill="rgb(129,181,225)"/><path d=" M 872.77 634.923 L 860.44 634.923 C 859.48 634.923 858.703 634.137 858.703 633.17 L 858.703 620.031 C 858.703 619.064 859.48 618.28 860.44 618.28 L 872.77 618.28 C 873.729 618.28 874.505 619.064 874.505 620.031 L 874.505 633.17 C 874.505 634.137 873.729 634.923 872.77 634.923 Z " fill="rgb(129,181,225)"/><path d=" M 870.057 624.768 C 870.057 622.676 868.376 620.979 866.3 620.979 C 864.226 620.979 862.544 622.676 862.544 624.768 C 862.544 624.768 862.016 628.781 866.3 631.974 C 870.586 628.781 870.057 624.768 870.057 624.768 Z " fill="rgb(135,118,181)"/><path d=" M 866.522 627.503 C 864.845 627.637 863.457 626.236 863.588 624.545 C 863.692 623.215 864.761 622.136 866.079 622.032 C 867.756 621.899 869.144 623.3 869.012 624.991 C 868.908 626.321 867.84 627.399 866.522 627.503 Z " fill="rgb(248,251,252)"/><path d=" M 871.423 602.731 C 871.423 605.627 869.096 607.974 866.227 607.974 C 863.356 607.974 861.03 605.627 861.03 602.731 C 861.03 599.836 863.356 597.489 866.227 597.489 C 869.096 597.489 871.423 599.836 871.423 602.731 Z " fill="rgb(135,118,181)"/><path d=" M 870.418 602.731 C 870.418 605.067 868.541 606.96 866.227 606.96 C 863.912 606.96 862.036 605.067 862.036 602.731 C 862.036 600.397 863.912 598.504 866.227 598.504 C 868.541 598.504 870.418 600.397 870.418 602.731 Z " fill="rgb(248,251,252)"/><path d=" M 866.227 598.504 C 868.126 598.504 869.729 599.778 870.245 601.526 L 870.404 601.65 C 870.516 601.65 870.598 601.541 870.566 601.434 C 870.013 599.544 868.279 598.165 866.227 598.165 C 864.174 598.165 862.442 599.544 861.888 601.434 C 861.855 601.541 861.936 601.65 862.049 601.65 L 862.209 601.526 C 862.724 599.778 864.327 598.504 866.227 598.504 Z " fill="rgb(170,141,192)"/><path d=" M 870.876 602.867 C 870.627 602.867 870.411 603.05 870.379 603.299 C 870.103 605.366 868.349 606.96 866.227 606.96 C 864.104 606.96 862.35 605.366 862.075 603.299 C 862.042 603.05 861.827 602.867 861.577 602.867 C 861.275 602.867 861.038 603.135 861.078 603.437 C 861.421 605.999 863.594 607.974 866.227 607.974 C 868.859 607.974 871.034 605.999 871.375 603.437 C 871.415 603.135 871.178 602.867 870.876 602.867 Z " fill="rgb(117,103,172)"/><path d=" M 870.418 602.731 C 870.418 605.067 868.541 606.96 866.227 606.96 C 863.912 606.96 862.036 605.067 862.036 602.731 C 862.036 600.397 863.912 598.504 866.227 598.504 C 868.541 598.504 870.418 600.397 870.418 602.731 Z " fill="rgb(248,251,252)"/><path d=" M 870.311 604.096 L 870.153 604.208 C 869.559 605.815 868.026 606.96 866.227 606.96 C 864.427 606.96 862.894 605.815 862.3 604.208 L 862.141 604.096 C 862.025 604.096 861.942 604.213 861.983 604.324 C 862.624 606.06 864.282 607.297 866.227 607.297 C 868.171 607.297 869.83 606.06 870.471 604.324 C 870.511 604.213 870.429 604.096 870.311 604.096 Z " fill="rgb(135,118,181)"/><path d=" M 866.215 603.103 L 866.215 603.103 C 866.104 603.103 866.014 603.012 866.014 602.901 L 866.014 599.923 C 866.014 599.812 866.104 599.722 866.215 599.722 C 866.327 599.722 866.416 599.812 866.416 599.923 L 866.416 602.901 C 866.416 603.012 866.327 603.103 866.215 603.103 Z " fill="rgb(135,118,181)"/><path d=" M 866.07 602.788 L 866.07 602.788 L 866.354 602.764 L 868.174 604.315 L 868.198 604.602 L 867.914 604.625 L 866.094 603.074 L 866.07 602.788 Z " fill="rgb(135,118,181)"/><path d=" M 866.26 599.197 L 866.11 599.197 L 866.11 598.791 L 866.26 598.791 L 866.26 599.197 Z " fill="rgb(208,213,235)"/><path d=" M 866.26 606.604 L 866.11 606.604 L 866.11 606.198 L 866.26 606.198 L 866.26 606.604 Z " fill="rgb(208,213,235)"/><path d=" M 862.715 602.621 L 862.715 602.774 L 862.312 602.774 L 862.312 602.621 L 862.715 602.621 Z " fill="rgb(208,213,235)"/><path d=" M 870.057 602.621 L 870.057 602.774 L 869.655 602.774 L 869.655 602.621 L 870.057 602.621 Z " fill="rgb(208,213,235)"/><path d=" M 863.784 600.169 L 863.678 600.276 L 863.393 599.989 L 863.5 599.881 L 863.784 600.169 Z " fill="rgb(208,213,235)"/><path d=" M 868.976 605.407 L 868.87 605.514 L 868.586 605.227 L 868.692 605.119 L 868.976 605.407 Z " fill="rgb(208,213,235)"/><path d=" M 863.678 605.119 L 863.784 605.227 L 863.5 605.514 L 863.393 605.407 L 863.678 605.119 Z " fill="rgb(208,213,235)"/><path d=" M 868.87 599.881 L 868.976 599.989 L 868.692 600.276 L 868.586 600.169 L 868.87 599.881 Z " fill="rgb(208,213,235)"/><path d=" M 872.77 586.571 L 860.44 586.571 C 859.48 586.571 858.703 585.788 858.703 584.82 L 858.703 571.68 C 858.703 570.713 859.48 569.929 860.44 569.929 L 872.77 569.929 C 873.729 569.929 874.505 570.713 874.505 571.68 L 874.505 584.82 C 874.505 585.788 873.729 586.571 872.77 586.571 Z " fill="rgb(129,181,225)"/><path d=" M 857.944 584.864 L 859.246 583.945 L 859.832 581.776 L 859.181 581.645 L 858.791 582.433 L 859.181 578.688 L 858.53 578.819 L 857.878 582.433 L 857.097 584.141 L 857.813 584.601" fill="rgb(245,211,171)"/><path d=" M 865.649 588.762 L 865.823 587.185 L 867.733 585.259 L 868.168 585.871 L 867.472 586.658 L 871.119 585.784 L 871.119 586.571 L 867.733 587.885 L 867.039 589.112 L 865.649 588.762 Z " fill="rgb(245,211,171)"/><path d=" M 841.874 627.74 L 848.977 662.793 L 854.352 662.212 L 850.705 660.856 L 852.049 660.469 L 850.129 627.74 L 841.874 627.74 Z " fill="rgb(88,0,147)"/><path d=" M 853.201 627.16 C 853.201 627.16 862.224 635.681 860.879 645.944 C 859.342 654.077 856.08 657.176 856.08 657.176 L 855.12 656.983 L 856.608 660.954 L 852.288 656.306 C 852.288 656.306 857.616 648.898 854.304 641.2 C 850.993 633.501 843.794 630.742 843.794 630.742 C 843.794 630.742 849.985 625.078 850.417 625.222 C 850.848 625.368 853.201 627.16 853.201 627.16 Z " fill="rgb(88,0,147)"/><path d=" M 857.039 583.538 C 857.039 583.538 842.21 601.693 840.482 605.324 C 840.482 605.324 839.762 606.632 839.762 610.408 C 839.762 614.185 841.058 628.129 841.058 628.129 L 856.176 628.999 C 856.176 628.999 851.28 612.005 851.136 611.57 C 850.993 611.134 848.545 608.52 846.242 607.939 L 858.911 584.845 L 857.039 583.538 Z " fill="rgb(245,142,79)"/><path d=" M 847.649 606.185 C 847.649 606.185 848.28 608.07 848.627 609.21 C 848.627 609.21 845.541 609.144 844.455 607.698 L 845.606 604.914 L 847.649 606.185 Z " fill="rgb(245,211,171)"/><path d=" M 849.996 600.293 C 849.996 600.293 850.908 605.655 849.996 606.873 C 849.083 608.092 845.954 606.02 844.65 604.071 C 843.346 602.12 843.086 597.734 845.302 597.369 C 847.519 597.003 849.474 598.343 849.996 600.293 Z " fill="rgb(245,211,171)"/><path d=" M 848.593 610.219 C 848.593 610.219 860.482 602.674 861.441 601.126 C 862.399 599.579 865.084 588.068 865.084 588.068 L 867.386 588.647 C 867.386 588.647 866.043 601.513 865.659 602.867 C 865.276 604.222 853.578 616.796 850.893 616.796 C 848.209 616.796 847.251 613.313 848.593 610.219 Z " fill="rgb(245,142,79)"/><path d=" M 843.595 597.608 C 843.595 597.608 845.158 595.418 847.937 595.944 C 850.714 596.469 851.41 595.857 851.41 595.857 C 851.41 595.857 850.802 598.922 848.892 599.622 C 846.981 600.324 846.461 600.148 846.461 600.148 C 846.461 600.148 847.503 601.2 847.763 601.987 C 848.023 602.776 846.895 601.024 846.461 601.638 C 846.027 602.25 846.461 603.565 847.329 603.476 C 848.197 603.389 847.676 604.09 847.329 604.79 C 846.981 605.492 846.461 606.368 845.939 606.104 C 845.419 605.842 843.595 604.79 842.9 602.601 C 842.206 600.411 842.032 598.309 843.595 597.608 Z " fill="rgb(88,0,147)"/><path d=" M 938.759 604.178 L 904.895 604.178 C 904.176 604.178 903.593 603.59 903.593 602.864 L 903.593 543.476 C 903.593 542.75 904.176 542.162 904.895 542.162 L 938.759 542.162 C 939.477 542.162 940.061 542.75 940.061 543.476 L 940.061 602.864 C 940.061 603.59 939.477 604.178 938.759 604.178 Z " fill="rgb(208,211,234)"/><path d=" M 932.42 552.411 L 910.886 552.411 C 910.311 552.411 909.845 551.94 909.845 551.36 L 909.845 548.206 C 909.845 547.625 910.311 547.155 910.886 547.155 L 932.42 547.155 C 932.995 547.155 933.462 547.625 933.462 548.206 L 933.462 551.36 C 933.462 551.94 932.995 552.411 932.42 552.411 Z " fill="rgb(129,181,225)"/><path d=" M 917.746 581.622 L 913.056 581.622 C 911.954 581.622 911.06 580.72 911.06 579.608 C 911.06 578.496 911.954 577.595 913.056 577.595 L 917.746 577.595 C 918.849 577.595 919.743 578.496 919.743 579.608 C 919.743 580.72 918.849 581.622 917.746 581.622 Z " fill="rgb(129,181,225)"/><path d=" M 931.291 581.622 L 926.602 581.622 C 925.499 581.622 924.606 580.72 924.606 579.608 C 924.606 578.496 925.499 577.595 926.602 577.595 L 931.291 577.595 C 932.395 577.595 933.288 578.496 933.288 579.608 C 933.288 580.72 932.395 581.622 931.291 581.622 Z " fill="rgb(135,118,181)"/><path d=" M 934.677 561.695 L 909.324 561.695 L 909.324 557.666 L 934.677 557.666 L 934.677 561.695 Z " fill="rgb(248,251,252)"/><path d=" M 934.677 568.528 L 909.324 568.528 L 909.324 564.499 L 934.677 564.499 L 934.677 568.528 Z " fill="rgb(248,251,252)"/><path d=" M 929.381 571.988 L 914.794 571.988 L 914.794 571.068 L 929.381 571.068 L 929.381 571.988 Z " fill="rgb(208,211,234)"/><path d=" M 1015.211 592.702 L 969.625 592.702 C 966.82 592.702 964.547 590.409 964.547 587.579 C 964.547 584.75 966.82 582.454 969.625 582.454 L 1015.211 582.454 C 1018.015 582.454 1020.29 584.75 1020.29 587.579 C 1020.29 590.409 1018.015 592.702 1015.211 592.702 Z " fill="rgb(208,213,235)"/><path d=" M 975.747 549.257 L 947.354 549.257 C 945.053 549.257 943.186 547.375 943.186 545.053 C 943.186 542.731 945.053 540.849 947.354 540.849 L 975.747 540.849 C 978.049 540.849 979.916 542.731 979.916 545.053 C 979.916 547.375 978.049 549.257 975.747 549.257 Z " fill="rgb(208,211,234)"/><path d=" M 954.128 545.053 C 954.128 545.778 953.544 546.367 952.824 546.367 C 952.105 546.367 951.522 545.778 951.522 545.053 C 951.522 544.328 952.105 543.74 952.824 543.74 C 953.544 543.74 954.128 544.328 954.128 545.053 Z " fill="rgb(253,195,77)"/><path d=" M 963.07 545.053 C 963.07 545.778 962.488 546.367 961.768 546.367 C 961.049 546.367 960.465 545.778 960.465 545.053 C 960.465 544.328 961.049 543.74 961.768 543.74 C 962.488 543.74 963.07 544.328 963.07 545.053 Z " fill="rgb(146,195,76)"/><path d=" M 971.319 545.053 C 971.319 545.778 970.736 546.367 970.016 546.367 C 969.297 546.367 968.714 545.778 968.714 545.053 C 968.714 544.328 969.297 543.74 970.016 543.74 C 970.736 543.74 971.319 544.328 971.319 545.053 Z " fill="rgb(233,90,56)"/><path d=" M 869.596 579.274 C 869.596 581.041 868.176 582.475 866.423 582.475 C 864.671 582.475 863.251 581.041 863.251 579.274 C 863.251 577.506 864.671 576.074 866.423 576.074 C 868.176 576.074 869.596 577.506 869.596 579.274 Z " fill="rgb(254,254,254)"/><path d=" M 866.471 581.634 C 865.185 581.634 864.141 580.582 864.141 579.284 C 864.141 577.986 865.185 576.934 866.471 576.934 C 867.759 576.934 868.802 577.986 868.802 579.284 C 868.802 580.582 867.759 581.634 866.471 581.634 Z  M 869.712 575.409 L 869.153 575.409 L 868.349 574.268 C 868.287 574.177 868.184 574.125 868.074 574.125 L 864.868 574.125 C 864.759 574.125 864.656 574.177 864.593 574.268 L 863.79 575.409 L 863.23 575.409 C 862.361 575.409 861.65 576.127 861.65 577.004 L 861.65 581.643 C 861.65 582.52 862.361 583.238 863.23 583.238 L 869.712 583.238 C 870.582 583.238 871.293 582.52 871.293 581.643 L 871.293 577.004 C 871.293 576.127 870.582 575.409 869.712 575.409 Z " fill="rgb(135,118,181)"/><path d=" M 868.012 579.284 C 868.012 580.142 867.322 580.838 866.471 580.838 C 865.62 580.838 864.931 580.142 864.931 579.284 C 864.931 578.426 865.62 577.73 866.471 577.73 C 867.322 577.73 868.012 578.426 868.012 579.284 Z " fill="rgb(129,181,225)"/><path d=" M 979.871 576.382 L 956.036 576.382 C 954.902 576.382 953.982 575.455 953.982 574.309 L 953.982 559.938 C 953.982 558.794 954.902 557.866 956.036 557.866 L 979.871 557.866 C 981.006 557.866 981.926 558.794 981.926 559.938 L 981.926 574.309 C 981.926 575.455 981.006 576.382 979.871 576.382 Z " fill="rgb(208,211,234)"/><path d=" M 967.981 566.981 L 967.926 566.981 C 967.802 566.981 967.679 566.949 967.57 566.887 L 956.799 560.851 C 956.444 560.653 956.315 560.202 956.513 559.844 C 956.71 559.486 957.157 559.357 957.512 559.556 L 967.953 565.408 L 978.396 559.556 C 978.751 559.357 979.197 559.486 979.394 559.844 C 979.591 560.202 979.463 560.653 979.109 560.851 L 968.337 566.887 C 968.229 566.949 968.106 566.981 967.981 566.981 Z " fill="rgb(239,87,80)"/><path d=" M 1021.071 574.484 L 990.073 574.484 C 989.066 574.484 988.25 573.66 988.25 572.645 L 988.25 531.126 C 988.25 530.11 989.066 529.287 990.073 529.287 L 1021.071 529.287 C 1022.078 529.287 1022.894 530.11 1022.894 531.126 L 1022.894 572.645 C 1022.894 573.66 1022.078 574.484 1021.071 574.484 Z " fill="rgb(0,0,0)"/><path d=" M 995.991 535.345 L 993.683 535.345 C 993.559 535.345 993.46 535.144 993.46 534.895 C 993.46 534.646 993.559 534.445 993.683 534.445 L 995.991 534.445 C 996.114 534.445 996.212 534.646 996.212 534.895 C 996.212 535.144 996.114 535.345 995.991 535.345 Z " fill="rgb(67,198,244)"/><path d=" M 1010.281 535.345 L 997.077 535.345 C 996.955 535.345 996.854 535.144 996.854 534.895 C 996.854 534.646 996.955 534.445 997.077 534.445 L 1010.281 534.445 C 1010.404 534.445 1010.503 534.646 1010.503 534.895 C 1010.503 535.144 1010.404 535.345 1010.281 535.345 Z " fill="rgb(67,198,244)"/><path d=" M 1001.289 537.206 L 997.077 537.206 C 996.955 537.206 996.854 537.004 996.854 536.756 C 996.854 536.508 996.955 536.306 997.077 536.306 L 1001.289 536.306 C 1001.411 536.306 1001.512 536.508 1001.512 536.756 C 1001.512 537.004 1001.411 537.206 1001.289 537.206 Z " fill="rgb(238,97,162)"/><path d=" M 1008.217 537.206 L 1002.147 537.206 C 1002.024 537.206 1001.924 537.004 1001.924 536.756 C 1001.924 536.508 1002.024 536.306 1002.147 536.306 L 1008.217 536.306 C 1008.339 536.306 1008.439 536.508 1008.439 536.756 C 1008.439 537.004 1008.339 537.206 1008.217 537.206 Z " fill="rgb(227,232,245)"/><path d=" M 1010.281 546.267 L 997.077 546.267 C 996.955 546.267 996.854 546.065 996.854 545.817 C 996.854 545.569 996.955 545.367 997.077 545.367 L 1010.281 545.367 C 1010.404 545.367 1010.503 545.569 1010.503 545.817 C 1010.503 546.065 1010.404 546.267 1010.281 546.267 Z " fill="rgb(227,232,245)"/><path d=" M 995.991 548.128 L 993.683 548.128 C 993.559 548.128 993.46 547.926 993.46 547.678 C 993.46 547.43 993.559 547.228 993.683 547.228 L 995.991 547.228 C 996.114 547.228 996.212 547.43 996.212 547.678 C 996.212 547.926 996.114 548.128 995.991 548.128 Z " fill="rgb(67,198,244)"/><path d=" M 1001.289 548.128 L 997.077 548.128 C 996.955 548.128 996.854 547.926 996.854 547.678 C 996.854 547.43 996.955 547.228 997.077 547.228 L 1001.289 547.228 C 1001.411 547.228 1001.512 547.43 1001.512 547.678 C 1001.512 547.926 1001.411 548.128 1001.289 548.128 Z " fill="rgb(227,232,245)"/><path d=" M 1008.217 548.128 L 1002.147 548.128 C 1002.024 548.128 1001.924 547.926 1001.924 547.678 C 1001.924 547.43 1002.024 547.228 1002.147 547.228 L 1008.217 547.228 C 1008.339 547.228 1008.439 547.43 1008.439 547.678 C 1008.439 547.926 1008.339 548.128 1008.217 548.128 Z " fill="rgb(238,97,162)"/><path d=" M 1013.556 539.067 L 997.077 539.067 C 996.955 539.067 996.854 538.866 996.854 538.617 C 996.854 538.368 996.955 538.166 997.077 538.166 L 1013.556 538.166 C 1013.678 538.166 1013.778 538.368 1013.778 538.617 C 1013.778 538.866 1013.678 539.067 1013.556 539.067 Z " fill="rgb(238,97,162)"/><path d=" M 1010.102 540.929 L 1006.265 540.929 C 1006.135 540.929 1006.03 540.822 1006.03 540.691 L 1006.03 540.265 C 1006.03 540.134 1006.135 540.027 1006.265 540.027 L 1010.102 540.027 C 1010.232 540.027 1010.337 540.134 1010.337 540.265 L 1010.337 540.691 C 1010.337 540.822 1010.232 540.929 1010.102 540.929 Z " fill="rgb(67,198,244)"/><path d=" M 1002.551 540.929 L 997.077 540.929 C 996.955 540.929 996.854 540.727 996.854 540.477 C 996.854 540.229 996.955 540.027 997.077 540.027 L 1002.551 540.027 C 1002.674 540.027 1002.773 540.229 1002.773 540.477 C 1002.773 540.727 1002.674 540.929 1002.551 540.929 Z " fill="rgb(227,232,245)"/><path d=" M 1005.464 540.929 L 1003.293 540.929 C 1003.17 540.929 1003.072 540.727 1003.072 540.477 C 1003.072 540.229 1003.17 540.027 1003.293 540.027 L 1005.464 540.027 C 1005.587 540.027 1005.686 540.229 1005.686 540.477 C 1005.686 540.727 1005.587 540.929 1005.464 540.929 Z " fill="rgb(67,198,244)"/><path d=" M 995.991 542.727 L 993.683 542.727 C 993.559 542.727 993.46 542.525 993.46 542.277 C 993.46 542.029 993.559 541.827 993.683 541.827 L 995.991 541.827 C 996.114 541.827 996.212 542.029 996.212 542.277 C 996.212 542.525 996.114 542.727 995.991 542.727 Z " fill="rgb(227,232,245)"/><path d=" M 1013.556 542.727 L 997.077 542.727 C 996.955 542.727 996.854 542.525 996.854 542.277 C 996.854 542.029 996.955 541.827 997.077 541.827 L 1013.556 541.827 C 1013.678 541.827 1013.778 542.029 1013.778 542.277 C 1013.778 542.525 1013.678 542.727 1013.556 542.727 Z " fill="rgb(227,232,245)"/><path d=" M 995.991 549.852 L 993.683 549.852 C 993.559 549.852 993.46 549.651 993.46 549.401 C 993.46 549.153 993.559 548.951 993.683 548.951 L 995.991 548.951 C 996.114 548.951 996.212 549.153 996.212 549.401 C 996.212 549.651 996.114 549.852 995.991 549.852 Z " fill="rgb(227,232,245)"/><path d=" M 1011.712 549.852 L 1006.306 549.852 C 1006.154 549.852 1006.03 549.727 1006.03 549.573 L 1006.03 549.23 C 1006.03 549.076 1006.154 548.951 1006.306 548.951 L 1011.712 548.951 C 1011.865 548.951 1011.989 549.076 1011.989 549.23 L 1011.989 549.573 C 1011.989 549.727 1011.865 549.852 1011.712 549.852 Z " fill="rgb(227,232,245)"/><path d=" M 1002.551 549.852 L 997.077 549.852 C 996.955 549.852 996.854 549.651 996.854 549.401 C 996.854 549.153 996.955 548.951 997.077 548.951 L 1002.551 548.951 C 1002.674 548.951 1002.773 549.153 1002.773 549.401 C 1002.773 549.651 1002.674 549.852 1002.551 549.852 Z " fill="rgb(227,232,245)"/><path d=" M 1005.464 549.852 L 1003.293 549.852 C 1003.17 549.852 1003.072 549.651 1003.072 549.401 C 1003.072 549.153 1003.17 548.951 1003.293 548.951 L 1005.464 548.951 C 1005.587 548.951 1005.686 549.153 1005.686 549.401 C 1005.686 549.651 1005.587 549.852 1005.464 549.852 Z " fill="rgb(227,232,245)"/><path d=" M 995.991 551.651 L 993.683 551.651 C 993.559 551.651 993.46 551.449 993.46 551.201 C 993.46 550.951 993.559 550.751 993.683 550.751 L 995.991 550.751 C 996.114 550.751 996.212 550.951 996.212 551.201 C 996.212 551.449 996.114 551.651 995.991 551.651 Z " fill="rgb(253,196,99)"/><path d=" M 999.93 551.651 L 997.077 551.651 C 996.955 551.651 996.854 551.449 996.854 551.201 C 996.854 550.951 996.955 550.751 997.077 550.751 L 999.93 550.751 C 1000.053 550.751 1000.152 550.951 1000.152 551.201 C 1000.152 551.449 1000.053 551.651 999.93 551.651 Z " fill="rgb(67,198,244)"/><path d=" M 993.683 544.588 C 993.559 544.588 993.46 544.386 993.46 544.138 C 993.46 543.889 993.559 543.688 993.683 543.688 L 995.991 543.688 C 996.114 543.688 996.212 543.889 996.212 544.138 C 996.212 544.386 996.114 544.588 995.991 544.588" fill="rgb(67,198,244)"/><path d=" M 1012.468 544.588 L 1006.324 544.588 C 1006.162 544.588 1006.03 544.455 1006.03 544.291 L 1006.03 543.984 C 1006.03 543.821 1006.162 543.688 1006.324 543.688 L 1012.468 543.688 C 1012.631 543.688 1012.763 543.821 1012.763 543.984 L 1012.763 544.291 C 1012.763 544.455 1012.631 544.588 1012.468 544.588 Z " fill="rgb(227,232,245)"/><path d=" M 1002.551 544.588 L 997.077 544.588 C 996.955 544.588 996.854 544.386 996.854 544.138 C 996.854 543.889 996.955 543.688 997.077 543.688 L 1002.551 543.688 C 1002.674 543.688 1002.773 543.889 1002.773 544.138 C 1002.773 544.386 1002.674 544.588 1002.551 544.588 Z " fill="rgb(253,196,99)"/><path d=" M 1005.464 544.588 L 1003.293 544.588 C 1003.17 544.588 1003.072 544.386 1003.072 544.138 C 1003.072 543.889 1003.17 543.688 1003.293 543.688 L 1005.464 543.688 C 1005.587 543.688 1005.686 543.889 1005.686 544.138 C 1005.686 544.386 1005.587 544.588 1005.464 544.588 Z " fill="rgb(253,196,99)"/><path d=" M 1010.281 553.564 L 997.077 553.564 C 996.955 553.564 996.854 553.362 996.854 553.114 C 996.854 552.865 996.955 552.664 997.077 552.664 L 1010.281 552.664 C 1010.404 552.664 1010.503 552.865 1010.503 553.114 C 1010.503 553.362 1010.404 553.564 1010.281 553.564 Z " fill="rgb(227,232,245)"/><path d=" M 1001.289 555.425 L 997.077 555.425 C 996.955 555.425 996.854 555.223 996.854 554.975 C 996.854 554.726 996.955 554.525 997.077 554.525 L 1001.289 554.525 C 1001.411 554.525 1001.512 554.726 1001.512 554.975 C 1001.512 555.223 1001.411 555.425 1001.289 555.425 Z " fill="rgb(227,232,245)"/><path d=" M 1008.217 555.425 L 1002.147 555.425 C 1002.024 555.425 1001.924 555.223 1001.924 554.975 C 1001.924 554.726 1002.024 554.525 1002.147 554.525 L 1008.217 554.525 C 1008.339 554.525 1008.439 554.726 1008.439 554.975 C 1008.439 555.223 1008.339 555.425 1008.217 555.425 Z " fill="rgb(227,232,245)"/><path d=" M 1010.281 564.486 L 997.077 564.486 C 996.955 564.486 996.854 564.285 996.854 564.036 C 996.854 563.787 996.955 563.586 997.077 563.586 L 1010.281 563.586 C 1010.404 563.586 1010.503 563.787 1010.503 564.036 C 1010.503 564.285 1010.404 564.486 1010.281 564.486 Z " fill="rgb(227,232,245)"/><path d=" M 995.991 566.347 L 993.683 566.347 C 993.559 566.347 993.46 566.146 993.46 565.897 C 993.46 565.649 993.559 565.447 993.683 565.447 L 995.991 565.447 C 996.114 565.447 996.212 565.649 996.212 565.897 C 996.212 566.146 996.114 566.347 995.991 566.347 Z " fill="rgb(238,97,162)"/><path d=" M 1001.289 566.347 L 997.077 566.347 C 996.955 566.347 996.854 566.146 996.854 565.897 C 996.854 565.649 996.955 565.447 997.077 565.447 L 1001.289 565.447 C 1001.411 565.447 1001.512 565.649 1001.512 565.897 C 1001.512 566.146 1001.411 566.347 1001.289 566.347 Z " fill="rgb(67,198,244)"/><path d=" M 1008.217 566.347 L 1002.147 566.347 C 1002.024 566.347 1001.924 566.146 1001.924 565.897 C 1001.924 565.649 1002.024 565.447 1002.147 565.447 L 1008.217 565.447 C 1008.339 565.447 1008.439 565.649 1008.439 565.897 C 1008.439 566.146 1008.339 566.347 1008.217 566.347 Z " fill="rgb(227,232,245)"/><path d=" M 995.991 557.286 L 993.683 557.286 C 993.559 557.286 993.46 557.085 993.46 556.836 C 993.46 556.587 993.559 556.386 993.683 556.386 L 995.991 556.386 C 996.114 556.386 996.212 556.587 996.212 556.836 C 996.212 557.085 996.114 557.286 995.991 557.286 Z " fill="rgb(238,97,162)"/><path d=" M 1008.864 557.286 L 997.124 557.286 C 996.975 557.286 996.854 557.165 996.854 557.016 L 996.854 556.657 C 996.854 556.507 996.975 556.386 997.124 556.386 L 1008.864 556.386 C 1009.013 556.386 1009.133 556.507 1009.133 556.657 L 1009.133 557.016 C 1009.133 557.165 1009.013 557.286 1008.864 557.286 Z " fill="rgb(238,97,162)"/><path d=" M 995.991 559.148 L 993.683 559.148 C 993.559 559.148 993.46 558.946 993.46 558.696 C 993.46 558.448 993.559 558.247 993.683 558.247 L 995.991 558.247 C 996.114 558.247 996.212 558.448 996.212 558.696 C 996.212 558.946 996.114 559.148 995.991 559.148 Z " fill="rgb(227,232,245)"/><path d=" M 1002.551 559.148 L 997.077 559.148 C 996.955 559.148 996.854 558.946 996.854 558.696 C 996.854 558.448 996.955 558.247 997.077 558.247 L 1002.551 558.247 C 1002.674 558.247 1002.773 558.448 1002.773 558.696 C 1002.773 558.946 1002.674 559.148 1002.551 559.148 Z " fill="rgb(227,232,245)"/><path d=" M 1005.464 559.148 L 1003.293 559.148 C 1003.17 559.148 1003.072 558.946 1003.072 558.696 C 1003.072 558.448 1003.17 558.247 1003.293 558.247 L 1005.464 558.247 C 1005.587 558.247 1005.686 558.448 1005.686 558.696 C 1005.686 558.946 1005.587 559.148 1005.464 559.148 Z " fill="rgb(227,232,245)"/><path d=" M 995.991 560.946 L 993.683 560.946 C 993.559 560.946 993.46 560.744 993.46 560.496 C 993.46 560.247 993.559 560.046 993.683 560.046 L 995.991 560.046 C 996.114 560.046 996.212 560.247 996.212 560.496 C 996.212 560.744 996.114 560.946 995.991 560.946 Z " fill="rgb(227,232,245)"/><path d=" M 1012.014 560.946 L 997.156 560.946 C 996.99 560.946 996.854 560.81 996.854 560.643 L 996.854 560.35 C 996.854 560.182 996.99 560.046 997.156 560.046 L 1012.014 560.046 C 1012.181 560.046 1012.316 560.182 1012.316 560.35 L 1012.316 560.643 C 1012.316 560.81 1012.181 560.946 1012.014 560.946 Z " fill="rgb(227,232,245)"/><path d=" M 995.991 568.071 L 993.683 568.071 C 993.559 568.071 993.46 567.869 993.46 567.62 C 993.46 567.372 993.559 567.17 993.683 567.17 L 995.991 567.17 C 996.114 567.17 996.212 567.372 996.212 567.62 C 996.212 567.869 996.114 568.071 995.991 568.071 Z " fill="rgb(227,232,245)"/><path d=" M 1013.539 568.071 L 1006.253 568.071 C 1006.13 568.071 1006.03 567.869 1006.03 567.62 C 1006.03 567.372 1006.13 567.17 1006.253 567.17 L 1013.539 567.17 C 1013.661 567.17 1013.76 567.372 1013.76 567.62 C 1013.76 567.869 1013.661 568.071 1013.539 568.071 Z " fill="rgb(227,232,245)"/><path d=" M 1002.551 568.071 L 997.077 568.071 C 996.955 568.071 996.854 567.869 996.854 567.62 C 996.854 567.372 996.955 567.17 997.077 567.17 L 1002.551 567.17 C 1002.674 567.17 1002.773 567.372 1002.773 567.62 C 1002.773 567.869 1002.674 568.071 1002.551 568.071 Z " fill="rgb(227,232,245)"/><path d=" M 1005.464 568.071 L 1003.293 568.071 C 1003.17 568.071 1003.072 567.869 1003.072 567.62 C 1003.072 567.372 1003.17 567.17 1003.293 567.17 L 1005.464 567.17 C 1005.587 567.17 1005.686 567.372 1005.686 567.62 C 1005.686 567.869 1005.587 568.071 1005.464 568.071 Z " fill="rgb(227,232,245)"/><path d=" M 1006.824 569.87 L 997.099 569.87 C 996.965 569.87 996.854 569.759 996.854 569.624 L 996.854 569.216 C 996.854 569.08 996.965 568.97 997.099 568.97 L 1006.824 568.97 C 1006.959 568.97 1007.068 569.08 1007.068 569.216 L 1007.068 569.624 C 1007.068 569.759 1006.959 569.87 1006.824 569.87 Z " fill="rgb(253,196,99)"/><path d=" M 1012.856 562.807 L 1006.332 562.807 C 1006.166 562.807 1006.03 562.67 1006.03 562.502 L 1006.03 562.212 C 1006.03 562.044 1006.166 561.907 1006.332 561.907 L 1012.856 561.907 C 1013.023 561.907 1013.159 562.044 1013.159 562.212 L 1013.159 562.502 C 1013.159 562.67 1013.023 562.807 1012.856 562.807 Z " fill="rgb(238,97,162)"/><path d=" M 1002.551 562.807 L 997.077 562.807 C 996.955 562.807 996.854 562.605 996.854 562.357 C 996.854 562.109 996.955 561.907 997.077 561.907 L 1002.551 561.907 C 1002.674 561.907 1002.773 562.109 1002.773 562.357 C 1002.773 562.605 1002.674 562.807 1002.551 562.807 Z " fill="rgb(253,196,99)"/><path d=" M 1005.464 562.807 L 1003.293 562.807 C 1003.17 562.807 1003.072 562.605 1003.072 562.357 C 1003.072 562.109 1003.17 561.907 1003.293 561.907 L 1005.464 561.907 C 1005.587 561.907 1005.686 562.109 1005.686 562.357 C 1005.686 562.605 1005.587 562.807 1005.464 562.807 Z " fill="rgb(253,196,99)"/><path d=" M 1027.395 530.22 C 1027.395 534.284 1024.129 537.577 1020.102 537.577 C 1016.073 537.577 1012.807 534.284 1012.807 530.22 C 1012.807 526.156 1016.073 522.863 1020.102 522.863 C 1024.129 522.863 1027.395 526.156 1027.395 530.22 Z " fill="rgb(215,103,166)"/><path d=" M 1019.573 529.53 L 1016.676 530.601 L 1019.573 531.662 L 1019.573 532.76 L 1015.431 531.171 L 1015.431 530.03 L 1019.573 528.442 L 1019.573 529.53 Z " fill="rgb(248,251,252)"/><path d=" M 1020.519 528.442 L 1024.66 530.03 L 1024.66 531.171 L 1020.519 532.76 L 1020.519 531.662 L 1023.416 530.601 L 1020.519 529.53 L 1020.519 528.442 Z " fill="rgb(248,251,252)"/><path d=" M 979.769 654.282 C 979.769 658.691 976.227 662.263 971.857 662.263 C 967.488 662.263 963.946 658.691 963.946 654.282 C 963.946 649.875 967.488 646.301 971.857 646.301 C 976.227 646.301 979.769 649.875 979.769 654.282 Z " fill="rgb(253,195,77)"/><path d=" M 970.796 654.472 C 970.796 655.198 971.09 655.56 971.675 655.56 C 971.982 655.56 972.216 655.451 972.377 655.233 C 972.537 655.014 972.634 654.659 972.668 654.167 L 972.735 653.026 C 972.561 652.989 972.365 652.969 972.146 652.969 C 971.72 652.969 971.388 653.103 971.151 653.372 C 970.915 653.64 970.796 654.006 970.796 654.472 Z  M 976.035 653.826 C 976.035 654.322 975.956 654.775 975.8 655.186 C 975.643 655.597 975.421 655.92 975.134 656.153 C 974.848 656.389 974.515 656.505 974.136 656.505 C 973.884 656.505 973.661 656.443 973.466 656.322 C 973.271 656.199 973.133 656.039 973.047 655.839 L 972.965 655.839 C 972.597 656.282 972.128 656.505 971.558 656.505 C 970.955 656.505 970.479 656.322 970.13 655.956 C 969.783 655.589 969.608 655.087 969.608 654.45 C 969.608 653.725 969.836 653.14 970.294 652.696 C 970.752 652.253 971.348 652.031 972.085 652.031 C 972.379 652.031 972.701 652.058 973.055 652.116 C 973.407 652.172 973.698 652.24 973.927 652.32 L 973.81 654.843 C 973.81 655.321 973.938 655.56 974.198 655.56 C 974.416 655.56 974.59 655.399 974.72 655.078 C 974.85 654.756 974.914 654.335 974.914 653.815 C 974.914 653.262 974.8 652.773 974.571 652.347 C 974.343 651.922 974.021 651.599 973.607 651.375 C 973.192 651.152 972.72 651.039 972.187 651.039 C 971.499 651.039 970.9 651.182 970.391 651.467 C 969.883 651.753 969.494 652.165 969.222 652.704 C 968.952 653.242 968.815 653.863 968.815 654.57 C 968.815 655.519 969.068 656.248 969.57 656.756 C 970.074 657.263 970.802 657.517 971.758 657.517 C 972.119 657.517 972.516 657.476 972.95 657.395 C 973.383 657.314 973.81 657.196 974.229 657.042 L 974.229 658.033 C 973.498 658.345 972.688 658.502 971.799 658.502 C 970.503 658.502 969.492 658.159 968.767 657.47 C 968.042 656.782 967.68 655.825 967.68 654.6 C 967.68 653.751 967.866 652.978 968.236 652.286 C 968.605 651.592 969.132 651.048 969.816 650.654 C 970.5 650.261 971.287 650.063 972.178 650.063 C 972.928 650.063 973.598 650.219 974.188 650.528 C 974.778 650.837 975.234 651.278 975.553 651.849 C 975.874 652.421 976.035 653.08 976.035 653.826 Z " fill="rgb(254,254,254)"/><path d=" M 932.602 516.207 L 882.968 516.207 C 878.936 516.207 875.668 519.504 875.668 523.57 C 875.668 527.637 878.936 530.934 882.968 530.934 L 886.618 530.934 L 890.146 534.492 L 893.673 530.934 L 932.602 530.934 C 936.632 530.934 939.9 527.637 939.9 523.57 C 939.9 519.504 936.632 516.207 932.602 516.207 Z " fill="rgb(208,213,235)"/><path d=" M 917.897 525.918 L 885.237 525.918 C 884.786 525.918 884.42 525.549 884.42 525.094 C 884.42 524.64 884.786 524.271 885.237 524.271 L 917.897 524.271 C 918.347 524.271 918.713 524.64 918.713 525.094 C 918.713 525.549 918.347 525.918 917.897 525.918 Z " fill="rgb(254,254,254)"/><path d=" M 907.69 521.388 L 885.237 521.388 C 884.786 521.388 884.42 521.019 884.42 520.565 C 884.42 520.109 884.786 519.74 885.237 519.74 L 907.69 519.74 C 908.142 519.74 908.506 520.109 908.506 520.565 C 908.506 521.019 908.142 521.388 907.69 521.388 Z " fill="rgb(254,254,254)"/><path d=" M 999.938 609.511 C 999.938 609.511 999.331 611.329 998.996 612.428 C 998.996 612.428 1001.972 612.365 1003.019 610.97 L 1001.909 608.285 L 999.938 609.511 Z " fill="rgb(245,211,171)"/><path d=" M 999.491 659.642 L 999.746 660.784 L 1001.389 660.878 L 1001.042 659.478 L 999.491 659.642 Z " fill="rgb(246,158,122)"/><path d=" M 999.746 660.784 C 999.746 660.784 996.993 662.232 997.015 662.325 C 997.039 662.419 1001.667 661.928 1001.667 661.928 L 1001.389 660.878 L 999.746 660.784 Z " fill="rgb(94,92,166)"/><path d=" M 1013.378 657.337 L 1014.022 658.312 L 1015.589 657.802 L 1014.765 656.622 L 1013.378 657.337 Z " fill="rgb(246,158,122)"/><path d=" M 1014.022 658.312 L 1012.024 660.741 L 1016.223 658.681 L 1015.589 657.802 L 1014.022 658.312 Z " fill="rgb(94,92,166)"/><path d=" M 996.437 629.41 C 996.437 629.41 991.717 644.958 999.215 659.944 L 1001.436 659.944 C 1001.436 659.944 996.993 642.997 1002.546 629.271 L 996.437 629.41 Z " fill="rgb(253,195,77)"/><path d=" M 1000.535 629.96 C 1000.535 629.96 1001.268 646.204 1013.321 657.779 L 1015.413 657.025 C 1015.413 657.025 1005.584 642.568 1006.243 627.758 L 1000.535 629.96 Z " fill="rgb(253,195,77)"/><path d=" M 998.374 593.361 L 998.38 592.402 L 998.364 592.278 L 998.183 591.592 L 997.64 591.731 L 997.089 591.216 C 996.855 591 996.48 591.071 996.346 591.36 C 996.175 591.724 995.981 592.195 995.92 592.553 C 995.896 592.695 995.943 592.839 996.039 592.947 L 996.883 593.878 C 997.005 594.012 997.191 594.065 997.364 594.013 L 998.037 593.812 C 998.236 593.753 998.373 593.57 998.374 593.361 Z " fill="rgb(246,158,122)"/><path d=" M 1006.516 614.385 C 1006.516 614.385 1000.359 607.729 999.954 605.237 C 999.548 602.747 998.648 593.478 998.648 593.478 L 996.75 593.848 C 996.75 593.848 996.098 607.104 996.673 608.63 C 997.251 610.157 1000.952 617.937 1003.364 618.655 C 1005.775 619.374 1007.469 616.975 1006.516 614.385 Z " fill="rgb(239,91,120)"/><path d=" M 997.965 603.405 C 997.965 603.405 996.576 608.067 997.455 609.242 C 998.335 610.417 1001.573 609.352 1002.83 607.473 C 1004.088 605.592 1004.34 601.361 1002.202 601.009 C 1000.065 600.656 998.468 601.525 997.965 603.405 Z " fill="rgb(246,158,122)"/><path d=" M 1006.295 630.671 C 1006.295 630.671 1007.544 617.226 1007.544 613.583 C 1007.544 613.417 1007.541 613.261 1007.539 613.104 C 1006.61 610.736 1004.303 610.782 1003.379 610.969 C 1002.454 611.156 998.844 612.323 998.867 612.463 L 998.857 612.451 C 997.614 613.361 996.663 614.442 996.576 614.704 C 996.576 614.704 993.244 621.708 996.16 630.111 L 1006.295 630.671 Z " fill="rgb(239,91,120)"/><path d=" M 988.649 594.048 L 988.487 593.104 L 988.45 592.984 L 988.153 592.34 L 987.644 592.574 L 987.01 592.165 C 986.744 591.993 986.387 592.13 986.304 592.439 C 986.2 592.827 986.09 593.325 986.093 593.688 C 986.094 593.833 986.164 593.966 986.279 594.053 L 987.271 594.821 C 987.415 594.933 987.607 594.951 987.768 594.87 L 988.396 594.552 C 988.582 594.459 988.684 594.254 988.649 594.048 Z " fill="rgb(246,158,122)"/><path d=" M 1000.324 613.304 C 1000.324 613.304 993.105 607.842 992.273 605.459 C 991.439 603.079 988.94 594.115 988.94 594.115 L 987.135 594.815 C 987.135 594.815 988.801 607.982 989.634 609.381 C 990.467 610.782 995.465 617.785 997.965 618.066 C 1000.464 618.346 1001.713 615.684 1000.324 613.304 Z " fill="rgb(239,91,120)"/><path d=" M 1003.102 600.978 C 1003.102 600.978 999.399 599.391 997.64 602.659 C 996.715 604.713 999.677 602.752 1000.232 603.405 C 1000.787 604.059 999.491 605.367 999.862 605.833 C 1000.232 606.3 1000.88 604.993 1001.251 605.74 C 1001.62 606.487 1000.695 606.581 1000.047 607.421 C 999.399 608.261 1000.603 609.475 999.677 610.223 C 998.751 610.969 996.16 611.53 997.733 615.545 C 999.307 619.559 995.141 620.586 996.9 626.096 C 998.659 631.605 1010.599 634.687 1012.821 628.15 C 1015.042 621.614 1007.638 620.026 1008.1 617.132 C 1008.563 614.237 1010.229 613.49 1008.008 610.596 C 1005.786 607.701 1004.397 606.02 1005.046 604.153 C 1005.693 602.284 1003.935 600.978 1003.102 600.978 Z " fill="rgb(99,0,166)"/><path d=" M 1016.25 586.787 C 1015.713 586.787 1015.277 586.348 1015.277 585.807 C 1015.277 585.264 1015.713 584.826 1016.25 584.826 C 1016.786 584.826 1017.223 585.264 1017.223 585.807 C 1017.223 586.348 1016.786 586.787 1016.25 586.787 Z  M 1013.199 590.813 C 1011.917 590.813 1010.862 589.852 1010.693 588.606 L 1015.705 588.606 C 1015.536 589.852 1014.48 590.813 1013.199 590.813 Z  M 1009.175 585.807 C 1009.175 585.264 1009.61 584.826 1010.148 584.826 C 1010.685 584.826 1011.12 585.264 1011.12 585.807 C 1011.12 586.348 1010.685 586.787 1010.148 586.787 C 1009.61 586.787 1009.175 586.348 1009.175 585.807 Z  M 1013.199 578.402 C 1008.804 578.402 1005.239 581.996 1005.239 586.431 C 1005.239 590.866 1008.804 594.46 1013.199 594.46 C 1017.594 594.46 1021.159 590.866 1021.159 586.431 C 1021.159 581.996 1017.594 578.402 1013.199 578.402 Z " fill="rgb(253,201,44)"/><path d=" M 894.969 643.538 L 894.504 642.598 L 907.121 636.234 L 923.038 636.497 L 940.321 629.93 L 953.522 629.93 L 967.616 625.19 L 967.731 625.203 L 979.034 626.499 L 985.405 623.156 L 985.886 624.089 L 979.233 627.579 L 979.075 627.561 L 967.728 626.26 L 953.606 630.98 L 940.417 630.98 L 923.221 637.552 L 923.122 637.55 L 907.36 637.29 L 894.969 643.538 Z " fill="rgb(248,251,252)"/><path d=" M 941.277 618.323 C 941.277 618.323 953.78 638.752 952.216 652.964 L 960.726 653.141 L 957.079 651.01 L 958.121 650.831 C 958.121 650.831 954.995 628.804 952.043 620.987 C 948.951 612.8 948.049 615.835 948.049 615.835 L 941.277 618.323 Z " fill="rgb(94,92,166)"/><path d=" M 936.761 617.053 C 936.761 617.053 937.457 631.244 936.414 636.673 C 935.372 642.105 932.246 652.791 932.246 652.791 L 940.234 652.966 L 938.137 651.472 L 936.804 650.689 C 936.804 650.689 942.492 635.272 943.013 627.916 C 943.534 620.557 944.402 616.352 944.402 616.352 L 936.761 617.053 Z " fill="rgb(94,92,166)"/><path d=" M 953.107 575.053 L 954.409 574.134 L 954.995 571.965 L 954.344 571.835 L 953.954 572.622 L 954.344 568.878 L 953.693 569.009 L 953.043 572.622 L 952.26 574.33 L 952.976 574.791" fill="rgb(245,211,171)"/><path d=" M 960.812 578.951 L 960.986 577.375 L 962.897 575.448 L 963.331 576.061 L 962.635 576.85 L 966.282 575.973 L 966.282 576.761 L 962.897 578.075 L 962.202 579.302 L 960.812 578.951 Z " fill="rgb(245,211,171)"/><path d=" M 952.203 573.728 C 952.203 573.728 937.373 591.883 935.646 595.515 C 935.646 595.515 934.925 596.821 934.925 600.597 C 934.925 604.375 936.221 618.318 936.221 618.318 L 951.339 619.188 C 951.339 619.188 946.443 602.196 946.301 601.76 C 946.156 601.324 943.708 598.71 941.404 598.129 L 954.075 575.035 L 952.203 573.728 Z " fill="rgb(129,181,225)"/><path d=" M 942.813 596.374 C 942.813 596.374 943.443 598.261 943.789 599.4 C 943.789 599.4 940.704 599.334 939.618 597.888 L 940.771 595.103 L 942.813 596.374 Z " fill="rgb(245,211,171)"/><path d=" M 945.159 590.482 C 945.159 590.482 946.072 595.845 945.159 597.063 C 944.247 598.281 941.117 596.21 939.813 594.26 C 938.511 592.311 938.249 587.923 940.466 587.558 C 942.682 587.193 944.638 588.533 945.159 590.482 Z " fill="rgb(245,211,171)"/><path d=" M 943.756 600.408 C 943.756 600.408 955.645 592.864 956.604 591.316 C 957.564 589.769 960.248 578.258 960.248 578.258 L 962.549 578.838 C 962.549 578.838 961.207 591.703 960.823 593.057 C 960.44 594.412 948.742 606.985 946.056 606.985 C 943.372 606.985 942.414 603.504 943.756 600.408 Z " fill="rgb(129,181,225)"/><path d=" M 944.316 589.287 C 944.316 589.287 944.923 587.185 943.622 586.133 C 942.319 585.083 940.061 585.259 939.714 585.608 C 939.714 586.222 941.103 586.571 940.756 586.922 C 940.408 587.273 938.585 586.922 938.151 588.762 C 937.717 590.601 938.325 590.952 938.325 590.952 C 938.325 590.952 937.369 592.09 938.498 593.666 C 939.627 595.243 942.178 596.542 942.813 596.374 C 943.448 596.206 943.1 593.754 943.1 593.754 C 943.1 593.754 941.624 593.579 941.536 592.615 C 941.45 591.652 942.232 591.564 942.578 591.915 C 942.926 592.265 943.013 593.053 943.274 592.878 C 943.534 592.702 943.186 590.863 943.186 590.863 C 943.186 590.863 944.142 590.076 944.316 589.287 Z " fill="rgb(99,0,166)"/><path d=" M 951.314 642.954 L 942.385 645.423 C 939.93 646.103 938.472 648.685 939.145 651.162 L 940.834 657.374 C 941.507 659.852 944.068 661.323 946.523 660.643 L 949.2 659.901 L 951.836 662.53 L 952.774 658.913 L 955.452 658.172 C 957.907 657.493 959.365 654.911 958.692 652.433 L 957.003 646.221 C 956.329 643.744 953.769 642.273 951.314 642.954 Z " fill="rgb(139,139,139)"/><path d=" M 945.405 653.134 C 945.555 653.684 945.234 654.252 944.689 654.403 C 944.143 654.554 943.58 654.23 943.43 653.68 C 943.281 653.13 943.601 652.561 944.147 652.41 C 944.692 652.259 945.256 652.583 945.405 653.134 Z " fill="rgb(254,254,254)"/><path d=" M 949.905 651.888 C 950.055 652.438 949.734 653.007 949.189 653.158 C 948.643 653.308 948.079 652.985 947.931 652.434 C 947.78 651.884 948.101 651.316 948.647 651.164 C 949.192 651.014 949.755 651.337 949.905 651.888 Z " fill="rgb(254,254,254)"/><path d=" M 954.405 650.643 C 954.555 651.193 954.234 651.761 953.689 651.913 C 953.143 652.063 952.58 651.74 952.43 651.189 C 952.281 650.639 952.601 650.07 953.147 649.92 C 953.693 649.768 954.256 650.092 954.405 650.643 Z " fill="rgb(254,254,254)"/><path d=" M 908.803 636.498 C 908.803 637.419 908.064 638.163 907.153 638.163 C 906.241 638.163 905.504 637.419 905.504 636.498 C 905.504 635.58 906.241 634.835 907.153 634.835 C 908.064 634.835 908.803 635.58 908.803 636.498 Z " fill="rgb(253,195,77)"/><path d=" M 969.409 625.812 C 969.409 626.732 968.67 627.477 967.759 627.477 C 966.848 627.477 966.109 626.732 966.109 625.812 C 966.109 624.894 966.848 624.149 967.759 624.149 C 968.67 624.149 969.409 624.894 969.409 625.812 Z " fill="rgb(239,91,120)"/></g></svg>