<?xml version="1.0" encoding="UTF-8" standalone="no"?><svg xmlns="http://www.w3.org/2000/svg" xmlns:xlink="http://www.w3.org/1999/xlink" style="isolation:isolate" viewBox="0 0 283.465 40.108" width="283.465pt" height="40.108pt"><defs><clipPath id="_clipPath_UdC5UMMmMP1DqP9cjAwSXKjSznBSloZM"><rect width="283.465" height="40.108"/></clipPath></defs><g clip-path="url(#_clipPath_UdC5UMMmMP1DqP9cjAwSXKjSznBSloZM)"><clipPath id="_clipPath_yAzOMEy4JIUf7sbB69OE0O5jcc9h1Qg3"><path d=" M 0 0 L 0 40.108 L 283.465 40.108 L 283.465 0 L 0 0 Z " fill="rgb(255,255,255)"/></clipPath><g clip-path="url(#_clipPath_yAzOMEy4JIUf7sbB69OE0O5jcc9h1Qg3)"><path d=" M 17.969 16.373 C 18.802 15.801 19.219 14.914 19.219 13.71 C 19.219 12.444 18.809 11.533 17.992 10.977 C 17.173 10.422 15.822 10.144 13.94 10.144 L 8.475 10.144 L 8.475 17.229 L 13.94 17.229 C 15.792 17.229 17.135 16.944 17.969 16.373 Z  M 28.667 36.541 L 19.45 36.541 L 15.19 25.565 C 14.695 24.331 13.538 23.712 11.717 23.712 L 8.567 23.712 L 8.567 36.541 L 0 36.541 L 0 3.567 L 15.329 3.567 C 19.312 3.567 22.306 4.424 24.313 6.138 C 26.319 7.852 27.323 10.298 27.323 13.478 C 27.323 15.701 26.729 17.623 25.54 19.244 C 24.352 20.865 22.676 22.015 20.516 22.694 C 21.442 22.879 22.276 23.312 23.017 23.99 C 23.757 24.67 24.343 25.581 24.776 26.723 L 28.667 36.541 Z " fill="rgb(124,197,213)"/><path d=" M 35.844 36.541 L 35.844 3.567 L 59.37 3.567 L 59.37 10.236 L 44.319 10.236 L 44.319 16.442 L 58.397 16.442 L 58.397 23.111 L 44.319 23.111 L 44.319 29.872 L 59.37 29.872 L 59.37 36.541 L 35.844 36.541 Z " fill="rgb(124,197,213)"/><path d=" M 115.218 36.541 L 115.218 3.567 L 123.925 3.567 L 123.925 29.502 L 137.865 29.502 L 137.865 36.541 L 115.218 36.541 Z " fill="rgb(124,197,213)"/><path d=" M 144.811 36.541 L 144.811 3.567 L 167.827 3.567 L 167.827 10.375 L 153.378 10.375 L 153.378 16.396 L 166.901 16.396 L 166.901 23.157 L 153.378 23.157 L 153.378 36.541 L 144.811 36.541 Z " fill="rgb(0,171,88)"/><path d=" M 174.634 36.541 L 174.634 3.567 L 183.341 3.567 L 183.341 36.541 L 174.634 36.541 Z " fill="rgb(0,171,88)"/><path d=" M 192.047 36.541 L 192.047 3.567 L 215.573 3.567 L 215.573 10.236 L 200.522 10.236 L 200.522 16.442 L 214.6 16.442 L 214.6 23.111 L 200.522 23.111 L 200.522 29.872 L 215.573 29.872 L 215.573 36.541 L 192.047 36.541 Z " fill="rgb(0,171,88)"/><path d=" M 222.797 36.541 L 222.797 3.567 L 231.504 3.567 L 231.504 29.502 L 245.443 29.502 L 245.443 36.541 L 222.797 36.541 Z " fill="rgb(0,171,88)"/><path d=" M 265.264 29.594 C 268.474 29.594 270.876 28.799 272.465 27.209 C 274.054 25.62 274.85 23.219 274.85 20.008 C 274.85 13.679 271.655 10.514 265.264 10.514 L 261.095 10.514 L 261.095 29.594 L 265.264 29.594 Z  M 252.389 3.567 L 265.866 3.567 C 269.507 3.567 272.649 4.224 275.29 5.536 C 277.93 6.848 279.952 8.739 281.356 11.209 C 282.761 13.679 283.464 16.612 283.464 20.008 C 283.464 23.435 282.769 26.392 281.379 28.876 C 279.991 31.362 277.975 33.261 275.337 34.572 C 272.697 35.885 269.539 36.541 265.866 36.541 L 252.389 36.541 L 252.389 3.567 Z " fill="rgb(0,171,88)"/><path d=" M 85.926 0 L 85.926 33.281 L 64.903 40.108 L 85.926 0 Z " fill="rgb(0,170,100)"/><path d=" M 88.551 0 L 88.551 33.281 L 109.573 40.108 L 88.551 0 Z " fill="rgb(124,197,213)"/></g></g></svg>